<?xml version="1.0" encoding="UTF-8"?>
<svg version="1.1" xmlns="http://www.w3.org/2000/svg" width="500" height="500">
<path d="M0 0 C0.77392593 -0.00807175 1.54785187 -0.01614349 2.3452301 -0.02445984 C3.99209338 -0.03832648 5.63898571 -0.04903703 7.28588867 -0.05688477 C9.7751582 -0.0739362 12.26304248 -0.11777511 14.75195312 -0.16210938 C24.28315129 -0.25705167 33.01519206 -0.30165431 40.66796875 6.17578125 C44.70344945 12.40599707 45.67040174 17.90023872 44.37890625 25.23828125 C41.86608454 32.44611195 36.90138464 37.869364 30.1640625 41.3984375 C29.57496094 41.67558594 28.98585938 41.95273437 28.37890625 42.23828125 C28.9925 42.96917969 29.60609375 43.70007813 30.23828125 44.453125 C33.49267904 49.34189629 33.82877687 55.10477825 34.62890625 60.80078125 C34.80164063 61.92419922 34.974375 63.04761719 35.15234375 64.20507812 C36.59521752 73.84141366 36.59521752 73.84141366 36.37890625 78.23828125 C34.31968223 80.29750527 30.16182501 79.65255704 27.31640625 79.80078125 C26.17848633 79.86555664 26.17848633 79.86555664 25.01757812 79.93164062 C23.13825187 80.03801758 21.25860381 80.13868059 19.37890625 80.23828125 C17.57623848 72.67945544 16.5012667 65.15400944 15.61132812 57.43945312 C15.49466797 56.53904297 15.37800781 55.63863281 15.2578125 54.7109375 C15.11194702 53.49289429 15.11194702 53.49289429 14.96313477 52.25024414 C14.50186692 49.85488273 14.50186692 49.85488273 11.37890625 48.23828125 C8.17511501 47.99581342 8.17511501 47.99581342 4.69140625 48.11328125 C3.51191406 48.13132812 2.33242188 48.149375 1.1171875 48.16796875 C-0.23826172 48.20277344 -0.23826172 48.20277344 -1.62109375 48.23828125 C-1.74484375 49.50800781 -1.86859375 50.77773438 -1.99609375 52.0859375 C-2.58146729 57.34708526 -3.56060981 62.49247387 -4.62109375 67.67578125 C-4.88792969 69.0205957 -4.88792969 69.0205957 -5.16015625 70.39257812 C-6.48959486 76.97528346 -6.48959486 76.97528346 -7.62109375 79.23828125 C-10.10033176 79.2651322 -12.57928215 79.28504672 -15.05859375 79.30078125 C-15.76564453 79.30916016 -16.47269531 79.31753906 -17.20117188 79.32617188 C-19.00802934 79.33481713 -20.81496978 79.29048136 -22.62109375 79.23828125 C-23.62109375 78.23828125 -23.62109375 78.23828125 -23.828125 75.36328125 C-23.75042503 70.19030694 -22.4699455 65.25650854 -21.30859375 60.23828125 C-20.84278902 58.16558031 -20.37794376 56.09266352 -19.9140625 54.01953125 C-19.68895996 53.02050781 -19.46385742 52.02148438 -19.23193359 50.9921875 C-18.47569358 47.58276011 -17.78890593 44.16612641 -17.12109375 40.73828125 C-15.29006001 31.4261668 -13.24676059 22.15895958 -11.20263672 12.89160156 C-10.81469238 11.12158518 -10.43351071 9.35007313 -10.05908203 7.57714844 C-8.40825129 -0.15319864 -7.48559233 0.07363668 0 0 Z M7.37890625 14.23828125 C4.55282628 20.01889937 3.04480746 25.82343289 2.37890625 32.23828125 C4.33357142 34.19294642 7.90775631 33.46812087 10.56640625 33.48828125 C12.53673828 33.52695313 12.53673828 33.52695313 14.546875 33.56640625 C18.59909089 33.21942752 20.95993051 32.39736697 24.37890625 30.23828125 C27.02125569 26.27475709 28.20434039 22.98452754 27.37890625 18.23828125 C24.46345201 15.15001806 22.87712745 14.28991039 18.609375 13.84765625 C17.2611604 13.87396288 15.91321107 13.92126321 14.56640625 13.98828125 C13.87353516 14.00632813 13.18066406 14.024375 12.46679688 14.04296875 C10.77022961 14.08977061 9.07438149 14.16150501 7.37890625 14.23828125 Z " fill="#37A5B9" transform="translate(264.62109375,214.76171875)"/>
<path d="M0 0 C1.47339844 0.13535156 1.47339844 0.13535156 2.9765625 0.2734375 C5.375 0.625 5.375 0.625 6.375 1.625 C6.53480437 4.07108998 6.63429447 6.49231058 6.69140625 8.94140625 C6.71218735 9.67246078 6.73296844 10.40351532 6.75437927 11.15672302 C6.81995024 13.50021656 6.87879432 15.84382539 6.9375 18.1875 C6.98067808 19.77279855 7.02429213 21.35808529 7.06835938 22.94335938 C7.1756392 26.83712037 7.2768849 30.73099772 7.375 34.625 C8.035 32.975 8.695 31.325 9.375 29.625 C10.035 29.625 10.695 29.625 11.375 29.625 C11.50028076 29.05442871 11.62556152 28.48385742 11.75463867 27.89599609 C12.87277316 23.8027702 14.86738173 20.07079228 16.6875 16.25 C17.07873047 15.41210938 17.46996094 14.57421875 17.87304688 13.7109375 C19.00279366 11.32779004 20.17258732 8.97222165 21.375 6.625 C21.84413818 5.68068115 21.84413818 5.68068115 22.32275391 4.71728516 C23.24609375 3.078125 23.24609375 3.078125 25.375 0.625 C28.609375 -0.1796875 28.609375 -0.1796875 32.125 -0.25 C33.88070312 -0.30800781 33.88070312 -0.30800781 35.671875 -0.3671875 C37.00992188 -0.37105469 37.00992188 -0.37105469 38.375 -0.375 C40.73290196 3.16185294 40.90501035 6.02941859 41.2265625 10.13671875 C41.32219986 11.22905571 41.32219986 11.22905571 41.41976929 12.34346008 C41.6212409 14.66586505 41.81076347 16.98906924 42 19.3125 C42.13463002 20.88873926 42.27003748 22.46491233 42.40625 24.04101562 C42.73818734 27.90163402 43.05941301 31.76301206 43.375 35.625 C43.68727539 34.88451416 43.99955078 34.14402832 44.32128906 33.38110352 C45.754976 29.98286222 47.18997857 26.58517797 48.625 23.1875 C49.36169922 21.44049805 49.36169922 21.44049805 50.11328125 19.65820312 C52.80616431 13.28504654 55.53999495 6.93626125 58.375 0.625 C62.995 0.625 67.615 0.625 72.375 0.625 C73.375 2.625 73.375 2.625 72.625 5.13671875 C70.10970919 11.52712946 67.43626427 17.7586521 64.46606445 23.95263672 C62.30915872 28.50018458 60.29582283 33.10224066 58.328125 37.734375 C58.0603273 38.36427841 57.7925296 38.99418182 57.51661682 39.64317322 C56.15793127 42.84378306 54.8067116 46.04737536 53.46264648 49.25415039 C52.96321533 50.43485107 52.46378418 51.61555176 51.94921875 52.83203125 C51.50151123 53.8991333 51.05380371 54.96623535 50.5925293 56.06567383 C49.375 58.625 49.375 58.625 47.375 60.625 C44.64802777 60.79670903 42.03593532 60.8574568 39.3125 60.8125 C38.56677734 60.81185547 37.82105469 60.81121094 37.05273438 60.81054688 C31.51528159 60.76528159 31.51528159 60.76528159 30.375 59.625 C30.07265277 57.11037449 29.82756863 54.61285241 29.62109375 52.08984375 C29.53414246 51.08878601 29.53414246 51.08878601 29.44543457 50.06750488 C29.22951896 47.56625789 29.02149038 45.06433514 28.8125 42.5625 C28.338125 36.973125 27.86375 31.38375 27.375 25.625 C21.765 37.175 16.155 48.725 10.375 60.625 C4.765 60.625 -0.845 60.625 -6.625 60.625 C-7.42506565 56.62467173 -7.80926994 53.23561991 -7.94140625 49.19921875 C-7.98338135 47.93795166 -8.02535645 46.67668457 -8.06860352 45.37719727 C-8.10858559 44.02230846 -8.14821064 42.66740907 -8.1875 41.3125 C-8.20867889 40.62968964 -8.22985779 39.94687927 -8.25167847 39.24337769 C-8.6493703 26.36986916 -8.744441 13.50441516 -8.625 0.625 C-5.34544768 -0.46818411 -3.41030914 -0.33293255 0 0 Z " fill="#38A5B8" transform="translate(392.625,233.375)"/>
<path d="M0 0 C5.62448312 4.06780799 9.16028537 8.67152121 10.93359375 15.3984375 C12.13800704 26.96640701 10.01401291 37.96413041 3.3984375 47.65625 C-2.45693186 54.62023596 -10.73893175 58.84064637 -19.72265625 59.78125 C-29.0255227 60.06033599 -35.5884278 58.98082026 -42.87890625 53.1484375 C-49.37266407 44.98485624 -50.22249205 37.83417624 -49.06640625 27.3984375 C-46.71079638 16.58301718 -41.82124878 8.06738466 -32.625 1.7109375 C-23.14731171 -3.78518487 -9.94108647 -5.29940715 0 0 Z M-26.06640625 15.3984375 C-30.97564284 21.39378838 -32.50573396 28.49973591 -32.3125 36.05859375 C-31.97570236 39.26084436 -31.2759797 41.04155915 -29.06640625 43.3984375 C-24.84905437 45.65423036 -21.49251096 45.69387162 -17.0234375 44.34375 C-11.94232868 41.88940202 -9.16908031 37.27199308 -7.19140625 32.1484375 C-5.71505777 26.96343049 -5.15227838 21.73520307 -6.06640625 16.3984375 C-8.61073013 13.1602071 -10.47360945 12.57739503 -14.37890625 11.3984375 C-19.14775511 11.3984375 -22.277042 12.50894407 -26.06640625 15.3984375 Z " fill="#37A5B9" transform="translate(362.06640625,235.6015625)"/>
<path d="M0 0 C0.66515625 0.26296875 1.3303125 0.5259375 2.015625 0.796875 C4.65521136 2.39725413 5.65214864 4.21477682 7.1875 6.875 C7.69667969 7.73867187 8.20585937 8.60234375 8.73046875 9.4921875 C12.53320444 17.00405309 11 22.72411308 11 32 C-7.81 32.495 -7.81 32.495 -27 33 C-24.93957183 40.65198991 -24.93957183 40.65198991 -21.375 43 C-16.0006653 44.59239547 -11.25062523 45.00559851 -6.0625 42.6875 C-3.78127739 40.98902321 -3.78127739 40.98902321 -2 38 C2.99911924 38.47610659 5.97832683 40.03162219 10 43 C9.55491959 48.04424468 7.39019075 50.44443409 4 54 C3.34 54 2.68 54 2 54 C2 54.66 2 55.32 2 56 C-9.84588191 60.31693744 -20.34987436 60.18638354 -32 55 C-38.91522385 50.45019303 -41.76443916 43.31291161 -43.5859375 35.48046875 C-45.09371852 26.44800696 -44.44304472 16.06768487 -39.1953125 8.34375 C-29.04249227 -3.45650899 -14.26678512 -6.74429842 0 0 Z M-24 13 C-26.30707661 16.75932588 -26.30707661 16.75932588 -27 21 C-19.41 21 -11.82 21 -4 21 C-4.9223624 14.7917617 -4.9223624 14.7917617 -9 11 C-14.02529156 8.48735422 -19.85255991 9.44505135 -24 13 Z " fill="#521DC9" transform="translate(124,236)"/>
<path d="M0 0 C0.82946136 -0.0065712 1.65892273 -0.0131424 2.51351929 -0.01991272 C5.26584967 -0.03966591 8.0181254 -0.05131348 10.77050781 -0.0612793 C11.70998512 -0.06535482 12.64946243 -0.06943035 13.61740875 -0.07362938 C18.59096559 -0.09449985 23.56449476 -0.1087967 28.53808594 -0.11816406 C33.67406833 -0.12922381 38.8096169 -0.1636159 43.94544601 -0.20333576 C47.8951701 -0.22949117 51.84479074 -0.237855 55.79459381 -0.24144554 C57.68760352 -0.24631516 59.58060849 -0.25793984 61.47353363 -0.27648354 C64.12593343 -0.30084969 66.77720987 -0.29991458 69.4296875 -0.29296875 C70.20913727 -0.30577881 70.98858704 -0.31858887 71.79165649 -0.33178711 C76.94849428 -0.28266589 79.87553077 0.7804898 83.97363281 4.17700195 C85.13661254 6.50296141 85.13963973 7.96423426 85.16113281 10.55200195 C85.1753125 11.32286133 85.18949219 12.0937207 85.20410156 12.88793945 C84.94122511 15.49888185 84.3820734 16.96661479 82.97363281 19.17700195 C74.83612085 23.06631595 63.03500399 21.39833905 54.23535156 21.29418945 C52.42316489 21.27814311 50.61097503 21.26245291 48.79878235 21.24710083 C45.01897373 21.21228034 41.23937208 21.16896674 37.4597168 21.12036133 C32.62002403 21.05941213 27.78057511 21.02632601 22.94058514 21.00030327 C19.20604682 20.97605992 15.47186946 20.93386188 11.73755836 20.88656998 C9.95266383 20.8667412 8.16768713 20.85324138 6.38269615 20.84624863 C3.89112708 20.83445246 1.40111101 20.79767006 -1.09008789 20.75463867 C-1.82316162 20.75652695 -2.55623535 20.75841522 -3.31152344 20.76036072 C-8.13944301 20.64147698 -10.63335955 19.60681358 -14.02636719 16.17700195 C-15.60092458 13.02788716 -15.37435837 10.6569138 -15.02636719 7.17700195 C-11.08712901 0.56260949 -7.19938717 0.02458071 0 0 Z " fill="#556DC8" transform="translate(23.0263671875,192.822998046875)"/>
<path d="M0 0 C0.825 0.495 1.65 0.99 2.5 1.5 C4.28787948 3.28787948 4.48227664 4.57068271 5 7 C3.78848458 8.20550294 2.55497111 9.38892747 1.3125 10.5625 C0.62800781 11.22378906 -0.05648437 11.88507813 -0.76171875 12.56640625 C-3 14 -3 14 -5.625 13.8125 C-8 13 -8 13 -10.3125 11.4375 C-14.14316218 9.38854116 -16.67561203 9.65125903 -21 10 C-21.99 10.66 -22.98 11.32 -24 12 C-24 13.32 -24 14.64 -24 16 C-22.74896484 16.38091797 -22.74896484 16.38091797 -21.47265625 16.76953125 C-19.13632991 17.48407779 -16.80177118 18.20442222 -14.46875 18.9296875 C-12.43279984 19.55789735 -10.39266432 20.1732693 -8.34375 20.7578125 C-2.65151073 22.4537879 2.0550499 24.51702198 5.1015625 29.97265625 C7.50098783 35.88776131 7.32202399 41.07247041 5 47 C1.43114028 52.85292994 -3.12817794 56.05355461 -9.8125 57.6875 C-19.53590482 58.64077498 -29.75220953 58.21413356 -38.125 52.5625 C-40.58444118 50.37038939 -41.97335291 49.07994128 -43 46 C-41.38405168 43.95880212 -39.7143618 41.95927063 -38 40 C-37.34 40 -36.68 40 -36 40 C-35.34 38.68 -34.68 37.36 -34 36 C-31 37 -31 37 -29.0625 39.4375 C-24.58797613 43.18148936 -19.73836303 43.66848522 -14 44 C-11.73039191 43.61097479 -11.73039191 43.61097479 -10 43 C-9.91773332 39.95613276 -10.02391783 37.92824652 -11 35 C-11.99966797 34.85304688 -11.99966797 34.85304688 -13.01953125 34.703125 C-31.83753591 31.65013403 -31.83753591 31.65013403 -37.9765625 23.68359375 C-40.5837422 19.39468364 -40.47349927 14.8512908 -40 10 C-38.2242852 5.51843408 -36.07135041 1.18781864 -31.79296875 -1.265625 C-21.06223016 -5.31981709 -10.05971173 -6.09343772 0 0 Z " fill="#5D17E8" transform="translate(183,237)"/>
<path d="M0 0 C-0.33 3.96 -0.66 7.92 -1 12 C4.28 12 9.56 12 15 12 C16.20833333 20.45833333 16.20833333 20.45833333 16 24 C15 25 15 25 11.40234375 25.09765625 C9.91403133 25.0909822 8.42573568 25.07902183 6.9375 25.0625 C6.17888672 25.05798828 5.42027344 25.05347656 4.63867188 25.04882812 C2.75908129 25.0370068 0.87953101 25.01907078 -1 25 C-0.88146154 29.05698819 -0.75719418 33.11375694 -0.62768555 37.17041016 C-0.5844545 38.54959378 -0.54277134 39.92882685 -0.50268555 41.30810547 C-0.44469597 43.29406938 -0.38062277 45.27985269 -0.31640625 47.265625 C-0.27974854 48.45961914 -0.24309082 49.65361328 -0.20532227 50.88378906 C-0.03791006 53.42463255 0.26317859 55.5771424 1 58 C2.41702513 57.85769192 3.8336096 57.71099254 5.25 57.5625 C6.03890625 57.48128906 6.8278125 57.40007812 7.640625 57.31640625 C9.82364639 57.02365007 11.8773182 56.57935581 14 56 C15.51595817 59.93121356 16.91189509 63.64905804 17.1875 67.875 C15.56757753 70.77380863 13.47324385 71.52738341 10.37890625 72.49609375 C3.34880791 73.98522788 -3.69956806 73.67056414 -10 70 C-15.60382444 65.14335215 -16.80873832 59.15822898 -18 52 C-18.19776566 47.22470712 -17.97998533 42.51776966 -17.6875 37.75 C-17.62626953 36.51636719 -17.56503906 35.28273438 -17.50195312 34.01171875 C-17.35053216 31.00659502 -17.18298189 28.00333854 -17 25 C-20.96 25.495 -20.96 25.495 -25 26 C-26.10962199 21.56151204 -26.2982655 17.54854894 -26 13 C-22.77208445 10.8480563 -21.71599191 10.79913557 -18 11 C-17.93941406 10.28972656 -17.87882813 9.57945312 -17.81640625 8.84765625 C-17.73261719 7.92855469 -17.64882812 7.00945312 -17.5625 6.0625 C-17.48128906 5.14597656 -17.40007812 4.22945312 -17.31640625 3.28515625 C-17 1 -17 1 -16 0 C-14.07470363 -0.45146889 -12.13368596 -0.83685706 -10.1875 -1.1875 C-9.12917969 -1.38730469 -8.07085937 -1.58710938 -6.98046875 -1.79296875 C-4 -2 -4 -2 0 0 Z " fill="#5C17E8" transform="translate(219,222)"/>
<path d="M0 0 C1.98162625 2.90740646 1.67910493 5.32101672 1.66900635 8.8122406 C1.67207291 9.85664558 1.67207291 9.85664558 1.67520142 10.92214966 C1.67821011 13.22440331 1.65972805 15.52594115 1.64068604 17.82810974 C1.63762796 19.42849551 1.63575221 21.02888394 1.63500977 22.62927246 C1.63040589 25.9843107 1.61597866 29.33910904 1.59381104 32.69407654 C1.5655515 36.99267743 1.55460171 41.29108917 1.55012894 45.58977413 C1.54596922 48.89519133 1.53614676 52.20057039 1.52425385 55.50596809 C1.51855973 57.09078734 1.5137982 58.67561022 1.50998688 60.2604351 C1.50310268 62.47698754 1.48945944 64.69339197 1.47369385 66.90989685 C1.46686584 68.17103806 1.46003784 69.43217926 1.45300293 70.73153687 C1.33855091 73.33464892 1.08722989 75.45673219 0.31256104 77.92576599 C-2.14606297 77.97960447 -4.60351446 78.01935637 -7.06243896 78.05076599 C-7.76111084 78.0675238 -8.45978271 78.08428162 -9.17962646 78.10154724 C-11.01641382 78.11920866 -12.85345859 78.0287986 -14.68743896 77.92576599 C-16.68743896 75.92576599 -16.68743896 75.92576599 -16.93467712 73.64916992 C-16.93325211 72.69832016 -16.93182709 71.7474704 -16.93035889 70.76780701 C-16.93343552 69.68810135 -16.93651215 68.60839569 -16.93968201 67.49597168 C-16.93249649 66.31909286 -16.92531097 65.14221405 -16.91790771 63.92967224 C-16.91744949 62.71238937 -16.91699127 61.49510651 -16.91651917 60.24093628 C-16.9134897 57.64913465 -16.9055829 55.05733496 -16.89324951 52.46556091 C-16.87528558 48.56355567 -16.87273792 44.66179215 -16.87298584 40.75975037 C-16.85300134 27.11820081 -16.61393616 13.53749172 -15.68743896 -0.07423401 C-12.28118896 -0.41798401 -12.28118896 -0.41798401 -8.87493896 -0.76173401 C-6.9780835 -0.95315979 -6.9780835 -0.95315979 -5.04290771 -1.14845276 C-1.68743896 -1.07423401 -1.68743896 -1.07423401 0 0 Z " fill="#5C18E5" transform="translate(65.68743896484375,216.07423400878906)"/>
<path d="M0 0 C2.31 0.99 4.62 1.98 7 3 C6.67 3.99 6.34 4.98 6 6 C7.32 5.67 8.64 5.34 10 5 C14.17423858 9.3883021 15.42806398 11.82309097 16 18 C16.350625 18.66 16.70125 19.32 17.0625 20 C18.47129342 23.00542596 18.18473179 25.736405 18 29 C17 30 17 30 13.58178711 30.11352539 C12.06363012 30.11336628 10.54546771 30.10767226 9.02734375 30.09765625 C8.22970108 30.0962413 7.43205841 30.09482635 6.61024475 30.09336853 C4.05262565 30.08775316 1.49509282 30.07519812 -1.0625 30.0625 C-2.79231645 30.05748698 -4.52213426 30.05292373 -6.25195312 30.04882812 C-10.50133553 30.03777875 -14.75065312 30.02050386 -19 30 C-18.67 34.29 -18.34 38.58 -18 43 C-17.34 43 -16.68 43 -16 43 C-15.67 44.65 -15.34 46.3 -15 48 C-15.66 48 -16.32 48 -17 48 C-17.33 48.66 -17.66 49.32 -18 50 C-18.99 50 -19.98 50 -21 50 C-21 49.01 -21 48.02 -21 47 C-21.66 47 -22.32 47 -23 47 C-23 47.66 -23 48.32 -23 49 C-23.66 49 -24.32 49 -25 49 C-25.4125 48.071875 -25.825 47.14375 -26.25 46.1875 C-27.71350926 42.96948986 -27.71350926 42.96948986 -30.125 41.5 C-32 40 -32 40 -32.75 37.5625 C-34.29020922 15.61451859 -34.29020922 15.61451859 -27.8125 7.4375 C-25.35104615 4.8674526 -23.6055141 3.52569112 -20.0625 3 C-19.051875 3 -18.04125 3 -17 3 C-17 3.66 -17 4.32 -17 5 C-16.34 5 -15.68 5 -15 5 C-14.71507911 9.93862882 -14.83726992 12.22905259 -18 16 C-18.66 17.98 -19.32 19.96 -20 22 C-11.75 22 -3.5 22 5 22 C5 18.7 5 15.4 5 12 C4.01 11.34 3.02 10.68 2 10 C2 9.34 2 8.68 2 8 C1.01 7.67 0.02 7.34 -1 7 C-0.67 4.69 -0.34 2.38 0 0 Z " fill="#5D17E7" transform="translate(115,236)"/>
<path d="M0 0 C0.825 0.495 1.65 0.99 2.5 1.5 C4.28787948 3.28787948 4.48227664 4.57068271 5 7 C3.78848458 8.20550294 2.55497111 9.38892747 1.3125 10.5625 C0.62800781 11.22378906 -0.05648437 11.88507813 -0.76171875 12.56640625 C-3 14 -3 14 -5.625 13.8125 C-8 13 -8 13 -10.3125 11.4375 C-14.14316218 9.38854116 -16.67561203 9.65125903 -21 10 C-21.99 10.66 -22.98 11.32 -24 12 C-24 13.32 -24 14.64 -24 16 C-22.74896484 16.38091797 -22.74896484 16.38091797 -21.47265625 16.76953125 C-19.13632991 17.48407779 -16.80177118 18.20442222 -14.46875 18.9296875 C-12.43279984 19.55789735 -10.39266432 20.1732693 -8.34375 20.7578125 C-2.40855364 22.5261758 1.79757789 24.84000306 5.4375 30.0625 C6.11891224 32.40958661 5.65885427 33.68679631 5 36 C4.82726562 35.45730469 4.65453125 34.91460937 4.4765625 34.35546875 C3.11086178 30.87857012 2.16648494 28.55078547 -1.31640625 26.90625 C-3.07309959 26.42453379 -4.84099113 25.98204138 -6.6171875 25.578125 C-9 25 -9 25 -11.5625 23.4375 C-14.60254835 21.64465097 -17.45608815 21.19149409 -20.9140625 20.625 C-23.44037234 19.86805323 -24.49028081 19.16441942 -26 17 C-26.07421875 14.73828125 -26.07421875 14.73828125 -25.6875 12.3125 C-25.56761719 11.50425781 -25.44773438 10.69601563 -25.32421875 9.86328125 C-25.21722656 9.24839844 -25.11023438 8.63351563 -25 8 C-19.01955594 6.28048715 -13.19240462 4.68804496 -7 4 C-7 3.34 -7 2.68 -7 2 C-12.43645624 0.3196408 -16.40200443 -0.13594616 -22.01953125 0.80859375 C-24 1 -24 1 -27 0 C-27 0.66 -27 1.32 -27 2 C-27.99 2.495 -27.99 2.495 -29 3 C-29.72159424 4.64363134 -30.39351421 6.31050386 -31 8 C-32.32 8 -33.64 8 -35 8 C-35.34055197 11.24565858 -35.34055197 11.24565858 -32.5 13.6875 C-31.675 14.450625 -30.85 15.21375 -30 16 C-30.99 16.33 -31.98 16.66 -33 17 C-34.40133554 19.70257568 -33.96342852 21.15238116 -33.25 24.125 C-30.54974341 27.57532787 -29.62674075 27.51006558 -25.4375 28.125 C-24.46683594 28.21007812 -23.49617188 28.29515625 -22.49609375 28.3828125 C-20 29 -20 29 -18.66015625 31.0546875 C-18.44230469 31.69664062 -18.22445312 32.33859375 -18 33 C-25.1287003 32.3933021 -32.17507616 30.54333637 -37 24.9375 C-40.32473685 20.05429275 -40.56042494 15.74189765 -40 10 C-38.2242852 5.51843408 -36.07135041 1.18781864 -31.79296875 -1.265625 C-21.06223016 -5.31981709 -10.05971173 -6.09343772 0 0 Z " fill="#5819E0" transform="translate(183,237)"/>
<path d="M0 0 C-2 3 -2 3 -5.5 3.75 C-9 4 -9 4 -11 3 C-11.33 3.66 -11.66 4.32 -12 5 C-14.64860427 5.59355614 -17.29197322 5.74209269 -20 6 C-20.05399736 7.45792884 -20.09279177 8.91642712 -20.125 10.375 C-20.14820313 11.18710938 -20.17140625 11.99921875 -20.1953125 12.8359375 C-20.21370051 15.21342243 -20.21370051 15.21342243 -18 17 C-16.07555861 17.4917701 -14.13483855 17.92111136 -12.1875 18.3125 C-6.90733852 19.54221348 -4.25840835 20.69424611 -1 25 C-2.65 25.66 -4.3 26.32 -6 27 C-5.34 27 -4.68 27 -4 27 C-3.27494442 28.42913847 -2.57041565 29.86870658 -1.875 31.3125 C-1.48054688 32.11300781 -1.08609375 32.91351563 -0.6796875 33.73828125 C-0.45539063 34.48464844 -0.23109375 35.23101562 0 36 C-0.66 36.99 -1.32 37.98 -2 39 C-2.433125 38.05125 -2.86625 37.1025 -3.3125 36.125 C-4.79302201 32.79958063 -4.79302201 32.79958063 -8 31 C-10.64632287 31.3121764 -10.64632287 31.3121764 -13 32 C-13.21785156 31.36191406 -13.43570313 30.72382813 -13.66015625 30.06640625 C-14.8413539 27.75075062 -14.8413539 27.75075062 -17.49609375 27.27734375 C-18.46675781 27.16519531 -19.43742188 27.05304688 -20.4375 26.9375 C-25.57666581 26.32846437 -25.57666581 26.32846437 -27.84765625 24.56640625 C-29 23 -29 23 -29 21 C-29.31478446 19.66216607 -29.64587656 18.32796291 -30 17 C-28.68 16.01 -27.36 15.02 -26 14 C-26.845625 13.2575 -27.69125 12.515 -28.5625 11.75 C-29.7690625 10.38875 -29.7690625 10.38875 -31 9 C-30.8125 6.6875 -30.8125 6.6875 -30 5 C-28.68 5 -27.36 5 -26 5 C-25.34 3.35 -24.68 1.7 -24 0 C-23.34 0 -22.68 0 -22 0 C-22 -0.66 -22 -1.32 -22 -2 C-14.36699064 -3.24903789 -7.12490081 -3.44753265 0 0 Z " fill="#5C18E7" transform="translate(178,239)"/>
<path d="M0 0 C4.69978858 2.89217759 4.69978858 2.89217759 5.5546875 6.046875 C5.78597215 8.02330745 5.90062818 10.01256369 6 12 C5.28972656 12.26554687 4.57945312 12.53109375 3.84765625 12.8046875 C2.92855469 13.15789062 2.00945312 13.51109375 1.0625 13.875 C-0.31228516 14.39707031 -0.31228516 14.39707031 -1.71484375 14.9296875 C-4.14941056 15.7819086 -4.14941056 15.7819086 -5 18 C-7.38629447 18.61187038 -9.53540571 19 -12 19 C-12 19.66 -12 20.32 -12 21 C-6.53534825 23.91448093 -0.3629237 23.9690668 5.5078125 22.27734375 C10.11411904 20.39985577 13.53761254 18.49653362 16 14 C16.25048636 10.87450983 16.25048636 10.87450983 16 8 C16.33 7.34 16.66 6.68 17 6 C17.99 6 18.98 6 20 6 C19.10053393 12.8390437 17.24809017 17.40167337 12 22 C3.69856961 27.18839399 -5.85800935 26.86282168 -15.125 24.8125 C-21.08854215 23.19990952 -26.04828711 21.13971204 -29.4375 15.6875 C-29.623125 15.130625 -29.80875 14.57375 -30 14 C-28.38405168 11.95880212 -26.7143618 9.95927063 -25 8 C-24.34 8 -23.68 8 -23 8 C-22.34 6.68 -21.68 5.36 -21 4 C-18 5 -18 5 -16.0625 7.4375 C-11.58797613 11.18148936 -6.73836303 11.66848522 -1 12 C1.26960809 11.61097479 1.26960809 11.61097479 3 11 C3.08226668 7.95613276 2.97608217 5.92824652 2 3 C-0.97 2.505 -0.97 2.505 -4 2 C-2.68 1.34 -1.36 0.68 0 0 Z " fill="#5918DF" transform="translate(170,269)"/>
<path d="M0 0 C1.32 0.66 2.64 1.32 4 2 C3.67 5.96 3.34 9.92 3 14 C8.28 14 13.56 14 19 14 C20.20833333 22.45833333 20.20833333 22.45833333 20 26 C19 27 19 27 15.40234375 27.09765625 C13.91403133 27.0909822 12.42573568 27.07902183 10.9375 27.0625 C10.17888672 27.05798828 9.42027344 27.05347656 8.63867188 27.04882812 C6.75908129 27.0370068 4.87953101 27.01907078 3 27 C3.11853846 31.05698819 3.24280582 35.11375694 3.37231445 39.17041016 C3.4155455 40.54959378 3.45722866 41.92882685 3.49731445 43.30810547 C3.55530403 45.29406938 3.61937723 47.27985269 3.68359375 49.265625 C3.72025146 50.45961914 3.75690918 51.65361328 3.79467773 52.88378906 C3.96208994 55.42463255 4.26317859 57.5771424 5 60 C6.41702513 59.85769192 7.8336096 59.71099254 9.25 59.5625 C10.03890625 59.48128906 10.8278125 59.40007812 11.640625 59.31640625 C13.82364639 59.02365007 15.8773182 58.57935581 18 58 C19.51595817 61.93121356 20.91189509 65.64905804 21.1875 69.875 C19.56416176 72.77992106 17.43244773 73.51181939 14.34375 74.5078125 C10.54976716 75.3045489 6.8538977 75.24086861 3 75 C3.495 74.01 3.495 74.01 4 73 C6.97 73 9.94 73 13 73 C13.495 72.01 13.495 72.01 14 71 C15.66666667 70.66666667 17.33333333 70.33333333 19 70 C19.33 69.34 19.66 68.68 20 68 C19.34 68 18.68 68 18 68 C17.67 67.01 17.34 66.02 17 65 C13.50765756 64.90021879 10.40562852 65.22157062 7 66 C6.67 66.99 6.34 67.98 6 69 C6.0825 68.071875 6.165 67.14375 6.25 66.1875 C6.3434 62.95090172 6.3434 62.95090172 4.1875 61.1875 C1.93035511 59.87973436 1.93035511 59.87973436 -1 59 C-0.85936717 55.35394698 -0.71153182 51.70821861 -0.5625 48.0625 C-0.52318359 47.04091797 -0.48386719 46.01933594 -0.44335938 44.96679688 C0.25654813 28.11517781 0.25654813 28.11517781 3 24 C6.2578125 23.70703125 6.2578125 23.70703125 10.125 23.8125 C11.40632812 23.83957031 12.68765625 23.86664063 14.0078125 23.89453125 C14.99523437 23.92933594 15.98265625 23.96414062 17 24 C16.67 22.02 16.34 20.04 16 18 C14.2365625 18.0309375 14.2365625 18.0309375 12.4375 18.0625 C8.42970063 18.13281227 5.12080064 17.58868581 1 17 C0.67 11.39 0.34 5.78 0 0 Z " fill="#4B1DB8" transform="translate(215,220)"/>
<path d="M0 0 C1.98162625 2.90740646 1.67910493 5.32101672 1.66900635 8.8122406 C1.67207291 9.85664558 1.67207291 9.85664558 1.67520142 10.92214966 C1.67821011 13.22440331 1.65972805 15.52594115 1.64068604 17.82810974 C1.63762796 19.42849551 1.63575221 21.02888394 1.63500977 22.62927246 C1.63040589 25.9843107 1.61597866 29.33910904 1.59381104 32.69407654 C1.5655515 36.99267743 1.55460171 41.29108917 1.55012894 45.58977413 C1.54596922 48.89519133 1.53614676 52.20057039 1.52425385 55.50596809 C1.51855973 57.09078734 1.5137982 58.67561022 1.50998688 60.2604351 C1.50310268 62.47698754 1.48945944 64.69339197 1.47369385 66.90989685 C1.46686584 68.17103806 1.46003784 69.43217926 1.45300293 70.73153687 C1.33855091 73.33464892 1.08722989 75.45673219 0.31256104 77.92576599 C-2.14606297 77.97960447 -4.60351446 78.01935637 -7.06243896 78.05076599 C-7.76111084 78.0675238 -8.45978271 78.08428162 -9.17962646 78.10154724 C-11.01641382 78.11920866 -12.85345859 78.0287986 -14.68743896 77.92576599 C-16.68743896 75.92576599 -16.68743896 75.92576599 -16.93467712 73.64916992 C-16.93325211 72.69832016 -16.93182709 71.7474704 -16.93035889 70.76780701 C-16.93343552 69.68810135 -16.93651215 68.60839569 -16.93968201 67.49597168 C-16.93249649 66.31909286 -16.92531097 65.14221405 -16.91790771 63.92967224 C-16.91744949 62.71238937 -16.91699127 61.49510651 -16.91651917 60.24093628 C-16.9134897 57.64913465 -16.9055829 55.05733496 -16.89324951 52.46556091 C-16.87528558 48.56355567 -16.87273792 44.66179215 -16.87298584 40.75975037 C-16.85300134 27.11820081 -16.61393616 13.53749172 -15.68743896 -0.07423401 C-12.28118896 -0.41798401 -12.28118896 -0.41798401 -8.87493896 -0.76173401 C-6.9780835 -0.95315979 -6.9780835 -0.95315979 -5.04290771 -1.14845276 C-1.68743896 -1.07423401 -1.68743896 -1.07423401 0 0 Z M-13.68743896 0.92576599 C-15.13701352 3.82491511 -14.80676821 6.34004899 -14.80096436 9.57859802 C-14.80111038 10.26164001 -14.80125641 10.94468201 -14.80140686 11.64842224 C-14.80070919 13.9101731 -14.79292362 16.17184199 -14.78509521 18.43357849 C-14.78323052 20.00013687 -14.78180686 21.56669583 -14.7808075 23.133255 C-14.77698639 27.25966497 -14.76715956 31.38603983 -14.75610352 35.51243591 C-14.74588066 39.72182236 -14.741308 43.93121447 -14.73626709 48.14060974 C-14.72553694 56.40234462 -14.70846539 64.66405094 -14.68743896 72.92576599 C-10.33513303 75.21382241 -7.60289566 75.24289223 -2.68743896 74.92576599 C-0.38650585 73.05425786 -0.38650585 73.05425786 -0.44020081 70.04124451 C-0.44162582 68.80817566 -0.44305084 67.57510681 -0.44451904 66.30467224 C-0.4426207 65.62484283 -0.44072235 64.94501343 -0.43876648 64.24458313 C-0.43505502 61.99236093 -0.44576804 59.74045964 -0.45697021 57.48826599 C-0.45816194 55.9264988 -0.45861519 54.36473088 -0.45835876 52.80296326 C-0.45992428 49.52777121 -0.46821895 46.25268838 -0.48162842 42.9775238 C-0.49861836 38.7739874 -0.50244279 34.57057111 -0.50168324 30.36700439 C-0.50195484 27.14145252 -0.50743458 23.91592703 -0.51468468 20.69038391 C-0.51787252 19.1401947 -0.51983902 17.59000249 -0.52057838 16.03981018 C-0.52274073 13.8754413 -0.53148264 11.71120109 -0.54217529 9.54685974 C-0.54598709 8.31379089 -0.54979889 7.08072205 -0.5537262 5.81028748 C-0.48946561 2.98394858 -0.48946561 2.98394858 -1.68743896 0.92576599 C-5.64743896 0.92576599 -9.60743896 0.92576599 -13.68743896 0.92576599 Z " fill="#3B1DD6" transform="translate(65.68743896484375,216.07423400878906)"/>
<path d="M0 0 C0.90720795 0.00141495 1.81441589 0.0028299 2.74911499 0.00428772 C5.65308905 0.00989529 8.55698665 0.02244907 11.4609375 0.03515625 C13.42708222 0.04017027 15.39322815 0.04473335 17.359375 0.04882812 C22.1849254 0.05986719 27.01041847 0.0771369 31.8359375 0.09765625 C31.8359375 0.75765625 31.8359375 1.41765625 31.8359375 2.09765625 C18.9659375 2.42765625 6.0959375 2.75765625 -7.1640625 3.09765625 C-7.8240625 5.07765625 -8.4840625 7.05765625 -9.1640625 9.09765625 C-9.8240625 9.75765625 -10.4840625 10.41765625 -11.1640625 11.09765625 C-10.1740625 12.41765625 -9.1840625 13.73765625 -8.1640625 15.09765625 C-8.8240625 15.09765625 -9.4840625 15.09765625 -10.1640625 15.09765625 C-10.1640625 15.75765625 -10.1640625 16.41765625 -10.1640625 17.09765625 C-8.68292969 16.97197266 -8.68292969 16.97197266 -7.171875 16.84375 C-5.24988281 16.69099609 -5.24988281 16.69099609 -3.2890625 16.53515625 C-2.01289063 16.43074219 -0.73671875 16.32632813 0.578125 16.21875 C3.8359375 16.09765625 3.8359375 16.09765625 5.8359375 17.09765625 C8.31426409 17.25392201 10.76905081 17.35578823 13.25 17.4140625 C13.97963959 17.4348436 14.70927917 17.45562469 15.46102905 17.47703552 C17.79423513 17.54247542 20.12755471 17.60138993 22.4609375 17.66015625 C24.04167845 17.70334678 25.62240789 17.74696124 27.203125 17.79101562 C31.08061254 17.89815106 34.95821435 17.99943407 38.8359375 18.09765625 C36.39131654 20.54227721 35.73024673 20.35680331 32.3737793 20.38818359 C31.44909348 20.4009433 30.52440765 20.413703 29.57170105 20.42684937 C28.56964127 20.42907501 27.56758148 20.43130066 26.53515625 20.43359375 C24.99236748 20.44357895 24.99236748 20.44357895 23.41841125 20.45376587 C21.23867586 20.46390557 19.05890934 20.46858248 16.87915039 20.46826172 C13.54716549 20.47262518 10.21651511 20.50890494 6.88476562 20.546875 C4.7682337 20.55274482 2.65169548 20.55671311 0.53515625 20.55859375 C-0.46083084 20.57296478 -1.45681793 20.58733582 -2.48298645 20.60214233 C-6.8967101 20.57306883 -9.4424117 20.53996018 -13.27026367 18.19384766 C-15.70172568 15.50253235 -16.11757661 14.500534 -16.5390625 10.84765625 C-16.04478954 5.90492667 -14.62577949 4.55937324 -11.1640625 1.09765625 C-7.72801485 -0.62036757 -3.77967354 -0.02200555 0 0 Z " fill="#442DA3" transform="translate(24.1640625,192.90234375)"/>
<path d="M0 0 C0.33 0.66 0.66 1.32 1 2 C3.02463255 2.65213292 3.02463255 2.65213292 5 3 C4.67 3.66 4.34 4.32 4 5 C2.68 4.67 1.36 4.34 0 4 C0.66 5.32 1.32 6.64 2 8 C-0.22732846 10.90256066 -1.69354931 12.65728327 -5.28759766 13.60009766 C-7.96439505 13.93856663 -10.61908978 14.15451198 -13.3125 14.3125 C-14.70952148 14.42174805 -14.70952148 14.42174805 -16.13476562 14.53320312 C-18.42248431 14.70918149 -20.7096111 14.86407282 -23 15 C-23 14.01 -23 13.02 -23 12 C-23.99 11.67 -24.98 11.34 -26 11 C-25.67 8.69 -25.34 6.38 -25 4 C-23.73542969 4.01740234 -23.73542969 4.01740234 -22.4453125 4.03515625 C-21.34960938 4.04417969 -20.25390625 4.05320312 -19.125 4.0625 C-17.48917969 4.07990234 -17.48917969 4.07990234 -15.8203125 4.09765625 C-13.04822454 4.19744303 -13.04822454 4.19744303 -11 3 C-10.2575 3.04125 -9.515 3.0825 -8.75 3.125 C-5.2653799 2.96660818 -3.01545891 1.68304683 0 0 Z " fill="#5C17E8" transform="translate(126,278)"/>
<path d="M0 0 C-2.95031994 10.08025979 -7.24215692 15.15029398 -16.21484375 20.26171875 C-24.142667 24.02116904 -33.31575663 24.49081839 -41.78515625 22.26953125 C-47.3982726 19.97368233 -51.69455549 16.79738109 -54.3125 11.1875 C-54.539375 10.465625 -54.76625 9.74375 -55 9 C-54.01 9 -53.02 9 -52 9 C-51.62875 9.86625 -51.62875 9.86625 -51.25 10.75 C-49.10438615 14.61210494 -47.03094939 16.60823923 -42.875 18.1875 C-41.92625 18.455625 -40.9775 18.72375 -40 19 C-39.34 19.33 -38.68 19.66 -38 20 C-35.71003214 20.09756755 -33.41704047 20.12976516 -31.125 20.125 C-29.89007813 20.12757813 -28.65515625 20.13015625 -27.3828125 20.1328125 C-23.58271667 20.03428266 -23.58271667 20.03428266 -20 19 C-19.505 17.515 -19.505 17.515 -19 16 C-18.34 15.67 -17.68 15.34 -17 15 C-17 13.68 -17 12.36 -17 11 C-17.66 10.67 -18.32 10.34 -19 10 C-17.35 8.35 -15.7 6.7 -14 5 C-13.01 6.65 -12.02 8.3 -11 10 C-10.67 9.01 -10.34 8.02 -10 7 C-9.34 7 -8.68 7 -8 7 C-7.731875 6.21625 -7.46375 5.4325 -7.1875 4.625 C-5.51608791 0.93029959 -4.04938155 0 0 0 Z " fill="#37A5B7" transform="translate(370,272)"/>
<path d="M0 0 C4.16253275 -0.09938095 8.32442479 -0.17170617 12.48779297 -0.21972656 C13.90197795 -0.23975843 15.31608097 -0.26699248 16.72998047 -0.30175781 C18.77071419 -0.35065489 20.8103469 -0.37305123 22.8515625 -0.390625 C24.68968506 -0.4220459 24.68968506 -0.4220459 26.56494141 -0.45410156 C30.66200729 0.08751482 32.80284162 1.43248547 36 4 C37.16297973 6.32595946 37.16600691 7.78723231 37.1875 10.375 C37.20167969 11.14585937 37.21585938 11.91671875 37.23046875 12.7109375 C36.96693169 15.32844116 36.42146612 16.78876853 35 19 C27.32181016 22.52317473 17.5979679 21.02001534 9.375 20.625 C7.97530573 20.56661183 6.5755656 20.50931238 5.17578125 20.453125 C1.78324968 20.31274438 -1.60841654 20.1614432 -5 20 C-5 19.67 -5 19.34 -5 19 C-4.23333008 18.94465088 -3.46666016 18.88930176 -2.67675781 18.83227539 C0.79910225 18.5792989 4.27454354 18.32095958 7.75 18.0625 C9.55984375 17.93198242 9.55984375 17.93198242 11.40625 17.79882812 C12.56640625 17.71181641 13.7265625 17.62480469 14.921875 17.53515625 C16.52434082 17.41732788 16.52434082 17.41732788 18.15917969 17.29711914 C20.55191412 17.04686495 22.68251749 16.60225306 25 16 C26.2684375 16.0309375 26.2684375 16.0309375 27.5625 16.0625 C30.26259624 16.21001775 30.26259624 16.21001775 33 14 C34.23956095 11.23482558 34.05379868 10.15780946 33.0625 7.25 C32.711875 6.5075 32.36125 5.765 32 5 C30.02 5.99 30.02 5.99 28 7 C27.61932373 6.35256836 27.23864746 5.70513672 26.84643555 5.03808594 C25.15702543 2.77483639 25.15702543 2.77483639 22.45629883 2.45410156 C21.46654053 2.4331543 20.47678223 2.41220703 19.45703125 2.390625 C17.84731445 2.34228516 17.84731445 2.34228516 16.20507812 2.29296875 C15.08552734 2.27878906 13.96597656 2.26460937 12.8125 2.25 C11.68134766 2.22035156 10.55019531 2.19070312 9.38476562 2.16015625 C6.58977167 2.08939691 3.79561472 2.03673024 1 2 C0.67 1.34 0.34 0.68 0 0 Z " fill="#5081A3" transform="translate(71,193)"/>
<path d="M0 0 C1.125 1.75390625 1.125 1.75390625 2 4 C-0.23256795 10.38057773 -5.60605349 15.12439798 -11.375 18.3125 C-11.91125 18.539375 -12.4475 18.76625 -13 19 C-12.38125 19.763125 -11.7625 20.52625 -11.125 21.3125 C-6.41539153 28.41031418 -6.679247 37.78515922 -7 46 C-8.89754465 43.15368302 -9.30007168 42.18588603 -9.7109375 38.98046875 C-9.87722656 37.81741211 -9.87722656 37.81741211 -10.046875 36.63085938 C-10.2639423 35.01448323 -10.47497859 33.39728461 -10.6796875 31.77929688 C-11.44797842 26.5016621 -12.7027324 23.21317526 -16 19 C-15.67 18.34 -15.34 17.68 -15 17 C-15.66 16.67 -16.32 16.34 -17 16 C-15.02 15.67 -13.04 15.34 -11 15 C-11.99 14.01 -12.98 13.02 -14 12 C-14.33 12.66 -14.66 13.32 -15 14 C-17.97 14 -20.94 14 -24 14 C-23.67 13.34 -23.34 12.68 -23 12 C-28.61 12 -34.22 12 -40 12 C-36.54970399 8.54970399 -31.48831818 9.58511647 -26.796875 9.44140625 C-22.84496666 8.98197658 -20.36997258 8.07460774 -17 6 C-15.59533047 3.94906855 -15.59533047 3.94906855 -15 2 C-14.01 2.33 -13.02 2.66 -12 3 C-12.226875 3.7425 -12.45375 4.485 -12.6875 5.25 C-13.29476698 8.05914993 -13.29476698 8.05914993 -11.5625 10.3125 C-11.046875 10.869375 -10.53125 11.42625 -10 12 C-6.99851864 11.67841271 -6.01794208 11.01846979 -3.875 8.8125 C-1.94730915 5.92096373 -0.93042006 3.33400523 0 0 Z " fill="#36A4B7" transform="translate(306,238)"/>
<path d="M0 0 C4.81674337 0.47222974 8.05727616 1.17573506 12 4 C13.765625 6.33984375 13.765625 6.33984375 15.25 8.9375 C15.75015625 9.79214844 16.2503125 10.64679688 16.765625 11.52734375 C20.51521609 19.03839172 19 24.74705441 19 34 C6.13 34 -6.74 34 -20 34 C-20 33.34 -20 32.68 -20 32 C-8.12 31.67 3.76 31.34 16 31 C16.03979454 24.3902335 16.03979454 24.3902335 14 19 C13.54410401 16.66760358 13.12867052 14.3357336 12.7578125 11.98828125 C12.1592444 9.8446053 12.1592444 9.8446053 10.1171875 8.73046875 C7.90061763 7.83692403 7.90061763 7.83692403 5 8 C4.67 7.01 4.34 6.02 4 5 C1.99983534 3.79117904 1.99983534 3.79117904 0 3 C0 2.01 0 1.02 0 0 Z " fill="#4E1DBB" transform="translate(116,234)"/>
<path d="M0 0 C0.33 0 0.66 0 1 0 C1 9.57 1 19.14 1 29 C1.66 29 2.32 29 3 29 C3.33 30.32 3.66 31.64 4 33 C5.41702513 32.85769192 6.8336096 32.71099254 8.25 32.5625 C9.03890625 32.48128906 9.8278125 32.40007812 10.640625 32.31640625 C12.82364639 32.02365007 14.8773182 31.57935581 17 31 C18.51595817 34.93121356 19.91189509 38.64905804 20.1875 42.875 C18.56416176 45.77992106 16.43244773 46.51181939 13.34375 47.5078125 C9.54976716 48.3045489 5.8538977 48.24086861 2 48 C2.33 47.34 2.66 46.68 3 46 C5.97 46 8.94 46 12 46 C12.33 45.34 12.66 44.68 13 44 C14.66666667 43.66666667 16.33333333 43.33333333 18 43 C18.33 42.34 18.66 41.68 19 41 C18.34 41 17.68 41 17 41 C16.67 40.01 16.34 39.02 16 38 C12.50765756 37.90021879 9.40562852 38.22157062 6 39 C5.67 39.99 5.34 40.98 5 42 C5.0825 41.071875 5.165 40.14375 5.25 39.1875 C5.3434 35.95090172 5.3434 35.95090172 3.1875 34.1875 C0.93035511 32.87973436 0.93035511 32.87973436 -2 32 C-1.85936717 28.35394698 -1.71153182 24.70821861 -1.5625 21.0625 C-1.52318359 20.04091797 -1.48386719 19.01933594 -1.44335938 17.96679688 C-1.19279999 11.93409791 -0.74356945 5.992295 0 0 Z " fill="#541FC1" transform="translate(216,247)"/>
<path d="M0 0 C0.33 0.66 0.66 1.32 1 2 C0.01 2.495 0.01 2.495 -1 3 C-1.72159424 4.64363134 -2.39351421 6.31050386 -3 8 C-4.32 8 -5.64 8 -7 8 C-7.34055197 11.24565858 -7.34055197 11.24565858 -4.5 13.6875 C-3.675 14.450625 -2.85 15.21375 -2 16 C-2.99 16.33 -3.98 16.66 -5 17 C-6.40133554 19.70257568 -5.96342852 21.15238116 -5.25 24.125 C-2.54974341 27.57532787 -1.62674075 27.51006558 2.5625 28.125 C3.53316406 28.21007812 4.50382813 28.29515625 5.50390625 28.3828125 C8 29 8 29 9.33984375 31.0546875 C9.55769531 31.69664062 9.77554688 32.33859375 10 33 C2.63270324 32.37299602 -3.2707903 30.12878357 -9.125 25.5625 C-12.05912525 21.54469086 -11.34163757 16.92034846 -10.78125 12.2109375 C-9.65810678 7.59481886 -7.66942964 4.05929028 -4 1 C-1.80078125 0.296875 -1.80078125 0.296875 0 0 Z " fill="#5B17E3" transform="translate(155,237)"/>
<path d="M0 0 C1.47339844 0.13535156 1.47339844 0.13535156 2.9765625 0.2734375 C5.375 0.625 5.375 0.625 6.375 1.625 C6.46361992 4.4366338 6.49022355 7.22358255 6.47265625 10.03515625 C6.4712413 10.87719101 6.46982635 11.71922577 6.46836853 12.58677673 C6.46275263 15.28705335 6.45019748 17.98724828 6.4375 20.6875 C6.43248705 22.51367068 6.42792379 24.33984266 6.42382812 26.16601562 C6.41277804 30.65237542 6.39550279 35.13867384 6.375 39.625 C5.385 39.625 4.395 39.625 3.375 39.625 C3.705 27.415 4.035 15.205 4.375 2.625 C3.715 3.285 3.055 3.945 2.375 4.625 C0.37543389 4.66665763 -1.62543389 4.66665763 -3.625 4.625 C-4.615 5.12 -4.615 5.12 -5.625 5.625 C-6.09294323 7.55856663 -6.09294323 7.55856663 -6.2578125 9.87890625 C-6.34160156 10.73291016 -6.42539062 11.58691406 -6.51171875 12.46679688 C-6.59035156 13.36462891 -6.66898437 14.26246094 -6.75 15.1875 C-6.83636719 16.08919922 -6.92273438 16.99089844 -7.01171875 17.91992188 C-7.22451659 20.15429918 -7.42854467 22.38913615 -7.625 24.625 C-7.955 24.625 -8.285 24.625 -8.625 24.625 C-8.625 16.705 -8.625 8.785 -8.625 0.625 C-5.34544768 -0.46818411 -3.41030914 -0.33293255 0 0 Z " fill="#4593A3" transform="translate(392.625,233.375)"/>
<path d="M0 0 C4.94378949 -0.09975053 9.88697822 -0.17187902 14.83154297 -0.21972656 C16.50938131 -0.23969699 18.18715136 -0.26688332 19.86474609 -0.30175781 C40.52282965 -0.72008708 40.52282965 -0.72008708 48.2890625 5.97265625 C52.16028597 12.02851752 52.71800602 16.88642184 52 24 C49.59425724 21.59425724 49.54303718 20.36435997 49 17.0625 C48.42540289 13.57900503 48.00936183 12.01404274 46 9 C45.34 8.67 44.68 8.34 44 8 C43.505 6.515 43.505 6.515 43 5 C41.865625 4.855625 40.73125 4.71125 39.5625 4.5625 C36 4 36 4 35 3 C32.3337397 2.91144839 29.69352886 2.88475327 27.02734375 2.90234375 C25.83087975 2.90446617 25.83087975 2.90446617 24.61024475 2.90663147 C22.05262565 2.91224684 19.49509282 2.92480188 16.9375 2.9375 C15.20768355 2.94251302 13.47786574 2.94707627 11.74804688 2.95117188 C7.49866447 2.96222125 3.24934688 2.97949614 -1 3 C-0.67 2.01 -0.34 1.02 0 0 Z " fill="#4E9AA8" transform="translate(257,215)"/>
<path d="M0 0 C0.66 0 1.32 0 2 0 C2 2.31 2 4.62 2 7 C3.9490625 6.7215625 3.9490625 6.7215625 5.9375 6.4375 C8.15234375 6.12109375 8.15234375 6.12109375 10 6 C12.02487036 8.02487036 11.16101877 12.19639417 11.17578125 14.98046875 C11.19899245 16.63608024 11.2231103 18.29167922 11.24804688 19.94726562 C11.28308 22.56299031 11.3124524 25.1782594 11.32592773 27.79418945 C11.34146434 30.31518299 11.38172388 32.83483287 11.42578125 35.35546875 C11.42387283 36.13069382 11.42196442 36.90591888 11.41999817 37.70463562 C11.53737955 42.95117109 12.74606063 45.71790478 16 50 C16 50.66 16 51.32 16 52 C17.134375 52.28875 18.26875 52.5775 19.4375 52.875 C20.613125 53.24625 21.78875 53.6175 23 54 C23.33 54.66 23.66 55.32 24 56 C19.10356985 55.54451813 16.41090579 54.59042714 13 51 C9.0532465 44.03358274 7.7787278 37.49635143 8.12109375 29.5078125 C8.19360352 27.70957031 8.19360352 27.70957031 8.26757812 25.875 C8.32365234 24.6375 8.37972656 23.4 8.4375 22.125 C8.48970703 20.86429687 8.54191406 19.60359375 8.59570312 18.3046875 C8.72494645 15.20284763 8.85989531 12.10136512 9 9 C6.36 9.33 3.72 9.66 1 10 C0.22157062 6.59437148 -0.09978121 3.49234244 0 0 Z " fill="#4B1EA9" transform="translate(193,238)"/>
<path d="M0 0 C0.99 0.33 1.98 0.66 3 1 C3 1.66 3 2.32 3 3 C1.34928604 4.02611949 -0.31970006 5.02308143 -2 6 C-3.89958081 7.31318262 -3.89958081 7.31318262 -5 9 C-4.97625179 11.00664457 -4.97625179 11.00664457 -4 13 C-1.80505641 14.54080733 -1.80505641 14.54080733 0.875 15.6875 C1.75929687 16.10386719 2.64359375 16.52023437 3.5546875 16.94921875 C10.67503762 20.00892192 19.33055607 20.17857021 26.84765625 18.28125 C31.31565573 16.43139379 34.61846747 14.34888549 37 10 C37.25048636 6.87450983 37.25048636 6.87450983 37 4 C37.33 3.34 37.66 2.68 38 2 C38.99 2 39.98 2 41 2 C40.10053393 8.8390437 38.24809017 13.40167337 33 18 C24.69856961 23.18839399 15.14199065 22.86282168 5.875 20.8125 C-0.08854215 19.19990952 -5.04828711 17.13971204 -8.4375 11.6875 C-8.623125 11.130625 -8.80875 10.57375 -9 10 C-7.38405168 7.95880212 -5.7143618 5.95927063 -4 4 C-3.34 4 -2.68 4 -2 4 C-1.34 2.68 -0.68 1.36 0 0 Z " fill="#451EB0" transform="translate(149,273)"/>
<path d="M0 0 C4.62 0 9.24 0 14 0 C15 2 15 2 14.25 4.51171875 C11.32634809 11.93962189 8.14213508 19.17989455 4.71484375 26.38671875 C2.41596109 31.23060591 0.20483991 36.11277421 -2 41 C-3.08008957 38.24708878 -3.02054347 37.0646939 -2.109375 34.1953125 C-1.66078125 33.18210937 -1.2121875 32.16890625 -0.75 31.125 C-0.28722656 30.06667969 0.17554688 29.00835937 0.65234375 27.91796875 C1.66002582 25.736118 2.72270196 23.57951683 3.8125 21.4375 C5.21898471 19.00240115 5.21898471 19.00240115 5 16 C5.66 16 6.32 16 7 16 C7.268125 15.175 7.53625 14.35 7.8125 13.5 C9.12524922 9.63084439 10.55101284 5.82005706 12 2 C10.35333797 2.1135629 8.70763918 2.24117381 7.0625 2.375 C6.14597656 2.44460937 5.22945313 2.51421875 4.28515625 2.5859375 C3.53105469 2.72257813 2.77695312 2.85921875 2 3 C1.67 3.66 1.34 4.32 1 5 C0.01 4.67 -0.98 4.34 -2 4 C-1.34 2.68 -0.68 1.36 0 0 Z " fill="#46929E" transform="translate(451,234)"/>
<path d="M0 0 C0.99 0 1.98 0 3 0 C3.2475 0.5775 3.495 1.155 3.75 1.75 C5.89561385 5.61210494 7.96905061 7.60823923 12.125 9.1875 C13.07375 9.455625 14.0225 9.72375 15 10 C15.66 10.33 16.32 10.66 17 11 C28.50917491 11.93235016 36.18434554 10.47994924 45 3 C45.66 3 46.32 3 47 3 C45.62740684 6.29142237 44.29739691 7.79419953 41.25 9.625 C40.59515625 10.02976562 39.9403125 10.43453125 39.265625 10.8515625 C31.25660473 14.91130726 21.89020507 15.51978792 13.19921875 13.27734375 C7.60018433 10.9530387 3.30645044 7.79953665 0.6875 2.1875 C0.460625 1.465625 0.23375 0.74375 0 0 Z " fill="#4A96A2" transform="translate(315,281)"/>
<path d="M0 0 C0.66 0 1.32 0 2 0 C3.99789249 2.99683874 4.74756206 4.4658688 5 8 C3.5625 10.8125 3.5625 10.8125 2 13 C3.32 12.67 4.64 12.34 6 12 C6 12.66 6 13.32 6 14 C8.31 14 10.62 14 13 14 C13.33 11.03 13.66 8.06 14 5 C14.66 5 15.32 5 16 5 C15.85892253 6.45880109 15.71197585 7.91703551 15.5625 9.375 C15.48128906 10.18710937 15.40007812 10.99921875 15.31640625 11.8359375 C15 14 15 14 14 16 C11.52076199 16.02685095 9.0418116 16.04676547 6.5625 16.0625 C5.85544922 16.07087891 5.14839844 16.07925781 4.41992188 16.08789062 C2.61306441 16.09653588 0.80612397 16.05220011 -1 16 C-2 15 -2 15 -2.1875 11.9375 C-1.98291202 7.64115245 -1.15885143 4.12840823 0 0 Z " fill="#3B9EB3" transform="translate(243,278)"/>
<path d="M0 0 C0.66 0 1.32 0 2 0 C3.29642537 4.40784626 2.45173063 6.7254598 1 11 C0.82200577 12.58004109 0.67913587 14.16424848 0.5625 15.75 C0.19231354 20.12729259 -0.81399019 23.90051664 -2.16796875 28.0625 C-3.92345603 34.2602767 -4.89092254 40.66016714 -6 47 C-7.485 47.495 -7.485 47.495 -9 48 C-8.52503879 38.81701277 -6.60640763 30.09817246 -4.5 21.1875 C-4.01574667 19.11237049 -3.53359459 17.03677276 -3.05310059 14.96076965 C-2.6192495 13.09039935 -2.17991245 11.22130402 -1.74023438 9.35229492 C-1.0539471 6.24430992 -0.49103021 3.14409039 0 0 Z " fill="#4698A9" transform="translate(255,219)"/>
<path d="M0 0 C4.62 0 9.24 0 14 0 C14 0.66 14 1.32 14 2 C13.31292969 1.97679687 12.62585938 1.95359375 11.91796875 1.9296875 C11.01691406 1.91164062 10.11585938 1.89359375 9.1875 1.875 C8.29417969 1.85179687 7.40085938 1.82859375 6.48046875 1.8046875 C3.74597286 1.81714173 3.74597286 1.81714173 1 4 C1 5.32 1 6.64 1 8 C1.83402344 8.25394531 2.66804687 8.50789062 3.52734375 8.76953125 C5.86367009 9.48407779 8.19822882 10.20442222 10.53125 10.9296875 C12.56720016 11.55789735 14.60733568 12.1732693 16.65625 12.7578125 C22.59144636 14.5261758 26.79757789 16.84000306 30.4375 22.0625 C31.11891224 24.40958661 30.65885427 25.68679631 30 28 C29.82726562 27.45730469 29.65453125 26.91460937 29.4765625 26.35546875 C28.11086178 22.87857012 27.16648494 20.55078547 23.68359375 18.90625 C21.92690041 18.42453379 20.15900887 17.98204138 18.3828125 17.578125 C16 17 16 17 13.4375 15.4375 C10.39745165 13.64465097 7.54391185 13.19149409 4.0859375 12.625 C1.55962766 11.86805323 0.50971919 11.16441942 -1 9 C-1.10182022 5.89716278 -0.49178378 3.08482552 0 0 Z " fill="#4C1BB3" transform="translate(158,245)"/>
<path d="M0 0 C0.82038591 6.401594 1.12754513 12.61302501 1.0625 19.0625 C1.05798828 19.92810547 1.05347656 20.79371094 1.04882812 21.68554688 C1.03719913 23.79039539 1.01927073 25.89520758 1 28 C5.62 27.67 10.24 27.34 15 27 C15.99 24.69 16.98 22.38 18 20 C18.66 20.33 19.32 20.66 20 21 C18.25 27.75 18.25 27.75 16 30 C13.27302777 30.17170903 10.66093532 30.2324568 7.9375 30.1875 C7.19177734 30.18685547 6.44605469 30.18621094 5.67773438 30.18554688 C0.14028159 30.14028159 0.14028159 30.14028159 -1 29 C-1.22907826 26.93076634 -1.39543552 24.85452523 -1.53515625 22.77734375 C-1.66567383 20.88725586 -1.66567383 20.88725586 -1.79882812 18.95898438 C-1.88681764 17.61849607 -1.97470695 16.27800119 -2.0625 14.9375 C-2.15387529 13.59307024 -2.24566675 12.24866869 -2.33789062 10.90429688 C-2.56270194 7.60312026 -2.7832098 4.30171152 -3 1 C-1 0 -1 0 0 0 Z " fill="#498F98" transform="translate(424,264)"/>
<path d="M0 0 C3.50097772 0.6591799 6.95738124 0.75849979 10.5078125 0.84375 C11.23320724 0.8645311 11.95860199 0.88531219 12.70597839 0.90672302 C15.00832238 0.9717659 17.31077407 1.03089148 19.61328125 1.08984375 C21.18034939 1.1330721 22.7474069 1.17668773 24.31445312 1.22070312 C28.14312061 1.32740043 31.97189575 1.42879344 35.80078125 1.52734375 C33.80078125 3.52734375 33.80078125 3.52734375 31.81393433 3.76785278 C30.59481857 3.76119095 30.59481857 3.76119095 29.35107422 3.75439453 C28.43027069 3.75424347 27.50946716 3.75409241 26.5607605 3.75393677 C25.56488922 3.7436142 24.56901794 3.73329163 23.54296875 3.72265625 C22.52478058 3.71982635 21.50659241 3.71699646 20.45755005 3.71408081 C17.19684225 3.70286145 13.93640641 3.67775371 10.67578125 3.65234375 C8.46875396 3.64231622 6.26172237 3.63318998 4.0546875 3.625 C-1.36337447 3.60291643 -6.78127718 3.5694217 -12.19921875 3.52734375 C-12.52921875 2.53734375 -12.85921875 1.54734375 -13.19921875 0.52734375 C-11.47107714 0.3306201 -9.74162678 0.14537576 -8.01171875 -0.03515625 C-7.04878906 -0.13957031 -6.08585937 -0.24398437 -5.09375 -0.3515625 C-2.19921875 -0.47265625 -2.19921875 -0.47265625 0 0 Z " fill="#5250A1" transform="translate(27.19921875,209.47265625)"/>
<path d="M0 0 C1.22589844 0.01353516 1.22589844 0.01353516 2.4765625 0.02734375 C3.41628906 0.04474609 3.41628906 0.04474609 4.375 0.0625 C4.375 0.3925 4.375 0.7225 4.375 1.0625 C3.68792969 1.16046875 3.00085938 1.2584375 2.29296875 1.359375 C1.39191406 1.50890625 0.49085937 1.6584375 -0.4375 1.8125 C-1.33082031 1.95171875 -2.22414063 2.0909375 -3.14453125 2.234375 C-6.23071857 3.26472415 -7.00368318 4.27753538 -8.625 7.0625 C-9.285 8.7125 -9.945 10.3625 -10.625 12.0625 C-3.035 12.0625 4.555 12.0625 12.375 12.0625 C11.055 8.7625 9.735 5.4625 8.375 2.0625 C9.695 1.7325 11.015 1.4025 12.375 1.0625 C13.62569801 3.56389602 13.50802467 5.33642691 13.5 8.125 C13.50386719 9.47271484 13.50386719 9.47271484 13.5078125 10.84765625 C13.375 13.0625 13.375 13.0625 12.375 14.0625 C10.69114925 14.16184776 9.00318403 14.1933005 7.31640625 14.1953125 C6.29095703 14.19660156 5.26550781 14.19789063 4.20898438 14.19921875 C2.58959961 14.19341797 2.58959961 14.19341797 0.9375 14.1875 C-0.13822266 14.19136719 -1.21394531 14.19523437 -2.32226562 14.19921875 C-3.86237305 14.19728516 -3.86237305 14.19728516 -5.43359375 14.1953125 C-6.38032959 14.19418457 -7.32706543 14.19305664 -8.30249023 14.19189453 C-10.625 14.0625 -10.625 14.0625 -12.625 13.0625 C-11.44949448 8.06660154 -10.22870258 4.89143399 -6.625 1.0625 C-4.21954362 -0.14022819 -2.67503047 -0.03821472 0 0 Z " fill="#4C20B6" transform="translate(107.625,244.9375)"/>
<path d="M0 0 C3.83078469 1.56069006 6.14143762 4.06814114 9 7 C15.71906656 11.47937771 21.40343437 11.13986445 29.125 10.1875 C30.00542969 10.09146484 30.88585937 9.99542969 31.79296875 9.89648438 C35.90411177 9.43452336 39.96013197 8.91358012 44 8 C43.34 8.33 42.68 8.66 42 9 C42 9.66 42 10.32 42 11 C30.20368217 15.29887504 19.59072412 15.24632776 8 10 C4.15346113 7.17920483 1.51725123 4.5517537 0 0 Z " fill="#481BBF" transform="translate(84,281)"/>
<path d="M0 0 C0.99 0.495 0.99 0.495 2 1 C2.6328125 3.94140625 2.6328125 3.94140625 3.125 7.5625 C3.29257812 8.76003906 3.46015625 9.95757812 3.6328125 11.19140625 C3.75398438 12.11824219 3.87515625 13.04507812 4 14 C10.08408472 14.19814261 10.08408472 14.19814261 16 13 C16.33 11.35 16.66 9.7 17 8 C19.14809171 11.22213757 19.29386153 12.27775401 19 16 C16.94077598 18.05922402 12.78291876 17.41427579 9.9375 17.5625 C8.79958008 17.62727539 8.79958008 17.62727539 7.63867188 17.69335938 C5.75934562 17.79973633 3.87969756 17.90039934 2 18 C0.3722167 11.85221129 -0.20190089 6.35987804 0 0 Z " fill="#478FA1" transform="translate(282,277)"/>
<path d="M0 0 C6.68320297 0.95474328 10.33464196 4.08327547 14.66796875 8.98828125 C19.31091572 16.00035658 19.02110771 25.44552618 17.546875 33.46484375 C17 35.375 17 35.375 16 38 C15.67 38 15.34 38 15 38 C15.0314209 37.16190796 15.0314209 37.16190796 15.06347656 36.30688477 C15.14766294 33.72561327 15.19897693 31.14463176 15.25 28.5625 C15.28351563 27.68400391 15.31703125 26.80550781 15.3515625 25.90039062 C15.46168541 18.43956334 13.69389144 12.65599552 9.25 6.625 C6.03708512 4.30456148 2.75741765 3.25247255 -1 2 C-0.67 1.34 -0.34 0.68 0 0 Z " fill="#4A949E" transform="translate(355,234)"/>
<path d="M0 0 C0.33 0.99 0.66 1.98 1 3 C3.31 2.01 5.62 1.02 8 0 C9.65 1.65 11.3 3.3 13 5 C12.2575 5.103125 11.515 5.20625 10.75 5.3125 C7.95 5.80625 7.95 5.80625 6 7.625 C4 9 4 9 1.5 8.875 C-1.16863289 7.94097849 -2.92825174 6.91828543 -5 5 C-5 4.34 -5 3.68 -5 3 C-2.5 1.375 -2.5 1.375 0 0 Z " fill="#5D18EA" transform="translate(149,281)"/>
<path d="M0 0 C2.86724686 0.57344937 3.8614515 0.8614515 6 3 C6.94550251 10.76048811 5.69963725 17.73669025 3 25 C2.34 25 1.68 25 1 25 C0.731875 25.7425 0.46375 26.485 0.1875 27.25 C-1.91821561 32.12639405 -1.91821561 32.12639405 -4 34 C-6.75363638 34.34352295 -9.20703942 34.18314496 -12 34 C-12 33.34 -12 32.68 -12 32 C-10.948125 31.79375 -9.89625 31.5875 -8.8125 31.375 C-4.57320934 30.13318759 -2.20649181 27.76639261 0 24 C3.03017502 17.74493991 4.10649466 10.88847166 3 4 C1.57869764 1.71196417 1.57869764 1.71196417 0 0 Z " fill="#4C97A4" transform="translate(352,248)"/>
<path d="M0 0 C0.5625 1.9375 0.5625 1.9375 1 4 C0 5 0 5 -3.59765625 5.09765625 C-5.08597255 5.09191272 -6.57426296 5.07889891 -8.0625 5.0625 C-10.681875 5.041875 -13.30125 5.02125 -16 5 C-16 14.57 -16 24.14 -16 34 C-16.33 34 -16.66 34 -17 34 C-17.02465504 29.60343827 -17.04283842 25.2069128 -17.05493164 20.81030273 C-17.05997121 19.31355082 -17.06680287 17.81680384 -17.07543945 16.32006836 C-17.08752159 14.17300193 -17.09323191 12.02600038 -17.09765625 9.87890625 C-17.10289307 8.5854126 -17.10812988 7.29191895 -17.11352539 5.95922852 C-17 3 -17 3 -16 2 C-13.68925832 1.90067608 -11.37537058 1.87030382 -9.0625 1.875 C-7.79535156 1.87242187 -6.52820313 1.86984375 -5.22265625 1.8671875 C-2 2 -2 2 0 3 C0 2.01 0 1.02 0 0 Z " fill="#5526B5" transform="translate(234,242)"/>
<path d="M0 0 C1.98 0 3.96 0 6 0 C6 0.66 6 1.32 6 2 C8.64 1.67 11.28 1.34 14 1 C14 1.66 14 2.32 14 3 C5.44617184 5.35325884 -2.86020482 5.04604367 -11.625 4.625 C-13.02469427 4.56661183 -14.4244344 4.50931238 -15.82421875 4.453125 C-19.21675032 4.31274438 -22.60841654 4.1614432 -26 4 C-26 3.67 -26 3.34 -26 3 C-13.13 2.01 -13.13 2.01 0 1 C0 0.67 0 0.34 0 0 Z " fill="#548DA8" transform="translate(92,209)"/>
<path d="M0 0 C3.96 0 7.92 0 12 0 C11.34 1.98 10.68 3.96 10 6 C9.34 6 8.68 6 8 6 C7.67 6.66 7.34 7.32 7 8 C4.69 8 2.38 8 0 8 C-0.33 8.66 -0.66 9.32 -1 10 C-1 8.68 -1 7.36 -1 6 C-0.34 6 0.32 6 1 6 C1 5.01 1 4.02 1 3 C0.34 2.67 -0.32 2.34 -1 2 C-0.67 1.34 -0.34 0.68 0 0 Z " fill="#35A7BB" transform="translate(449,238)"/>
<path d="M0 0 C0.33 0 0.66 0 1 0 C1.19658808 1.41543415 1.38187546 2.83244031 1.5625 4.25 C1.66691406 5.03890625 1.77132812 5.8278125 1.87890625 6.640625 C2.00027349 9.00532874 1.69633257 10.7511037 1 13 C-1.45862401 13.05383848 -3.9160755 13.09359038 -6.375 13.125 C-7.42300781 13.15013672 -7.42300781 13.15013672 -8.4921875 13.17578125 C-10.32897486 13.19344267 -12.16601963 13.10303261 -14 13 C-14.66 12.34 -15.32 11.68 -16 11 C-16 9.68 -16 8.36 -16 7 C-14.7625 7.495 -14.7625 7.495 -13.5 8 C-9.38040259 9.17702783 -6.26703315 9.21696779 -2 9 C-0.50256881 7.50256881 -0.66797307 6.01175761 -0.4375 3.9375 C-0.293125 2.638125 -0.14875 1.33875 0 0 Z " fill="#4518B5" transform="translate(65,281)"/>
<path d="M0 0 C0.33 0 0.66 0 1 0 C1 9.57 1 19.14 1 29 C1.66 29 2.32 29 3 29 C3.33 29.99 3.66 30.98 4 32 C1 33 1 33 -2 32 C-1.85936717 28.35394698 -1.71153182 24.70821861 -1.5625 21.0625 C-1.52318359 20.04091797 -1.48386719 19.01933594 -1.44335938 17.96679688 C-1.19279999 11.93409791 -0.74356945 5.992295 0 0 Z " fill="#4F1AD2" transform="translate(216,247)"/>
<path d="M0 0 C1.875 0.25 1.875 0.25 4 1 C9.2494107 9.99333003 10.18104455 19.82127313 10 30 C8.10245535 27.15368302 7.69992832 26.18588603 7.2890625 22.98046875 C7.17820312 22.20509766 7.06734375 21.42972656 6.953125 20.63085938 C6.7360577 19.01448323 6.52502141 17.39728461 6.3203125 15.77929688 C5.55202158 10.5016621 4.2972676 7.21317526 1 3 C1.33 2.34 1.66 1.68 2 1 C1.34 0.67 0.68 0.34 0 0 Z " fill="#4293A2" transform="translate(289,254)"/>
<path d="M0 0 C4.69978858 2.89217759 4.69978858 2.89217759 5.5546875 6.046875 C5.78597215 8.02330745 5.90062818 10.01256369 6 12 C-4.12255965 15.70498915 -4.12255965 15.70498915 -8 15 C-8.66 14.01 -9.32 13.02 -10 12 C-9.39671875 12.01160156 -8.7934375 12.02320313 -8.171875 12.03515625 C-7.37265625 12.04417969 -6.5734375 12.05320312 -5.75 12.0625 C-4.96109375 12.07410156 -4.1721875 12.08570313 -3.359375 12.09765625 C-1.09308998 12.00385306 0.8288895 11.63241063 3 11 C3.08226668 7.95613276 2.97608217 5.92824652 2 3 C-0.97 2.505 -0.97 2.505 -4 2 C-2.68 1.34 -1.36 0.68 0 0 Z " fill="#4618D4" transform="translate(170,269)"/>
<path d="M0 0 C4.75364364 0.46604349 8.20163033 1.02289945 12 4 C14.3125 7.1875 14.3125 7.1875 16 10 C15.67 10.66 15.34 11.32 15 12 C13.2925002 10.71937515 11.62626404 9.38232443 10 8 C10 7.34 10 6.68 10 6 C9.34 6 8.68 6 8 6 C8 6.66 8 7.32 8 8 C7.01 8 6.02 8 5 8 C4.67 7.01 4.34 6.02 4 5 C1.99983534 3.79117904 1.99983534 3.79117904 0 3 C0 2.01 0 1.02 0 0 Z " fill="#521FCE" transform="translate(116,234)"/>
<path d="M0 0 C1.8125 0.125 1.8125 0.125 4 1 C4.350625 1.969375 4.70125 2.93875 5.0625 3.9375 C6.65400011 7.21511948 6.65400011 7.21511948 9.5625 7.69921875 C11.53625438 7.97934795 13.51798576 8.20874776 15.50390625 8.3828125 C18 9 18 9 19.33984375 11.0546875 C19.55769531 11.69664062 19.77554688 12.33859375 20 13 C12.94282717 12.39938955 6.53993743 10.53993743 1.4375 5.4375 C0 3 0 3 0 0 Z " fill="#4D1DBE" transform="translate(145,257)"/>
<path d="M0 0 C0.66 0.66 1.32 1.32 2 2 C0.35 5.3 -1.3 8.6 -3 12 C-8.61 12 -14.22 12 -20 12 C-20.33 10.68 -20.66 9.36 -21 8 C-20.01 8.495 -20.01 8.495 -19 9 C-16.62597499 9.07116382 -14.24999323 9.08409085 -11.875 9.0625 C-10.59367187 9.05347656 -9.31234375 9.04445313 -7.9921875 9.03515625 C-7.00476563 9.02355469 -6.01734375 9.01195312 -5 9 C-3.35 6.03 -1.7 3.06 0 0 Z " fill="#468E9E" transform="translate(406,282)"/>
<path d="M0 0 C2.91691525 -0.05401695 5.83282724 -0.09368066 8.75 -0.125 C9.575 -0.14175781 10.4 -0.15851563 11.25 -0.17578125 C12.04921875 -0.18222656 12.8484375 -0.18867188 13.671875 -0.1953125 C14.4050293 -0.20578613 15.13818359 -0.21625977 15.89355469 -0.22705078 C18.33586908 0.03620286 19.90968771 0.72672766 22 2 C24.0683099 4.99904936 24.19927643 7.41302423 24 11 C23.01 11.495 23.01 11.495 22 12 C21.731875 10.88625 21.46375 9.7725 21.1875 8.625 C20.34190981 4.78159049 20.34190981 4.78159049 17 3 C13.77582736 2.68369321 10.59627183 2.53706326 7.36132812 2.43359375 C2.20062789 2.20062789 2.20062789 2.20062789 0 0 Z " fill="#4494A3" transform="translate(270,227)"/>
<path d="M0 0 C6.35432532 1.64336 9.50466938 3.72657922 12.9453125 9.37109375 C14.75019836 13.86993887 14.4800204 18.24424231 14 23 C11.59425724 20.59425724 11.54303718 19.36435997 11 16.0625 C10.42540289 12.57900503 10.00936183 11.01404274 8 8 C7.34 7.67 6.68 7.34 6 7 C5.67 6.01 5.34 5.02 5 4 C2.49552484 2.78130071 2.49552484 2.78130071 0 2 C0 1.34 0 0.68 0 0 Z " fill="#4593A1" transform="translate(295,216)"/>
<path d="M0 0 C0.66 0 1.32 0 2 0 C1.85892253 1.45880109 1.71197585 2.91703551 1.5625 4.375 C1.48128906 5.18710937 1.40007812 5.99921875 1.31640625 6.8359375 C1 9 1 9 0 11 C-2.47923801 11.02685095 -4.9581884 11.04676547 -7.4375 11.0625 C-8.14455078 11.07087891 -8.85160156 11.07925781 -9.58007812 11.08789062 C-11.38693559 11.09653588 -13.19387603 11.05220011 -15 11 C-16 10 -16 10 -16.0625 6.4375 C-16.041875 5.303125 -16.02125 4.16875 -16 3 C-15.67 3 -15.34 3 -15 3 C-15 4.98 -15 6.96 -15 9 C-10.38 9 -5.76 9 -1 9 C-0.67 6.03 -0.34 3.06 0 0 Z " fill="#448C9D" transform="translate(257,283)"/>
<path d="M0 0 C0.66 0.33 1.32 0.66 2 1 C0.25 6.75 0.25 6.75 -2 9 C-1.01 10.32 -0.02 11.64 1 13 C0.34 13 -0.32 13 -1 13 C-1 13.66 -1 14.32 -1 15 C-1.99 14.67 -2.98 14.34 -4 14 C-5.60030744 10.79938511 -5.64316057 7.46211964 -5 4 C-2.5 1.5 -2.5 1.5 0 0 Z " fill="#602FD3" transform="translate(15,195)"/>
<path d="M0 0 C0.66 0 1.32 0 2 0 C1.690625 0.680625 1.38125 1.36125 1.0625 2.0625 C-1.10526917 8.05574417 -1.13731243 14.14750106 -1.0625 20.4375 C-1.05798828 21.16904297 -1.05347656 21.90058594 -1.04882812 22.65429688 C-1.03718148 24.43623419 -1.01925191 26.21812863 -1 28 C-1.66 28 -2.32 28 -3 28 C-5.77031449 22.45937103 -4.64335059 13.47226429 -3.10546875 7.5625 C-2.15740212 4.98965486 -1.15728692 2.48506701 0 0 Z " fill="#45929F" transform="translate(317,252)"/>
<path d="M0 0 C0.66 0.33 1.32 0.66 2 1 C-2.22802108 8.44937048 -2.22802108 8.44937048 -5.84082031 9.57202148 C-7.99664223 9.99933444 -9.91474864 10.11428221 -12.109375 10.09765625 C-12.86347656 10.09443359 -13.61757813 10.09121094 -14.39453125 10.08789062 C-15.17183594 10.07951172 -15.94914062 10.07113281 -16.75 10.0625 C-17.54277344 10.05798828 -18.33554687 10.05347656 -19.15234375 10.04882812 C-21.10159508 10.03708565 -23.05080738 10.01915146 -25 10 C-21.54970399 6.54970399 -16.48831818 7.58511647 -11.796875 7.44140625 C-7.84496666 6.98197658 -5.36997258 6.07460774 -2 4 C-0.59533047 1.94906855 -0.59533047 1.94906855 0 0 Z " fill="#4295A3" transform="translate(291,240)"/>
<path d="M0 0 C2 1.4375 2 1.4375 4 4 C4.51474617 7.76366353 4.72105424 11.55789151 3 15 C0.93359375 15.4140625 0.93359375 15.4140625 -1.5625 15.625 C-2.80193359 15.73714844 -2.80193359 15.73714844 -4.06640625 15.8515625 C-5.02353516 15.92503906 -5.02353516 15.92503906 -6 16 C-4 14 -4 14 -1.9375 13.125 C0.11500997 12.17024074 0.11500997 12.17024074 0.875 10.25 C1.04423979 7.20368386 -0.00580194 4.85831942 -1 2 C-0.67 1.34 -0.34 0.68 0 0 Z " fill="#50A0AA" transform="translate(104,195)"/>
<path d="M0 0 C2.1875 0.3125 2.1875 0.3125 4 1 C2.8553125 1.9590625 2.8553125 1.9590625 1.6875 2.9375 C-3.39922043 8.05304037 -4.28815813 15.22380793 -4.69140625 22.15234375 C-5 24 -5 24 -7 26 C-6.21011673 6.85214008 -6.21011673 6.85214008 -1.53515625 1.2421875 C-1.02855469 0.83226562 -0.52195312 0.42234375 0 0 Z " fill="#4798A5" transform="translate(335,249)"/>
<path d="M0 0 C-2.15175584 1.75328254 -3.84113939 2.9483703 -6.5 3.8125 C-10.11322806 5.52878333 -11.19448061 7.45344405 -13 11 C-13.40458102 13.39575425 -13.62087597 15.71780587 -13.7265625 18.14453125 C-13.81679687 18.75683594 -13.90703125 19.36914062 -14 20 C-14.66 20.33 -15.32 20.66 -16 21 C-16.35001936 15.16634405 -16.20465132 11.10370396 -13 6 C-12.608125 5.278125 -12.21625 4.55625 -11.8125 3.8125 C-8.92212997 0.92212997 -3.91048136 -1.95524068 0 0 Z " fill="#421FAD" transform="translate(159,235)"/>
<path d="M0 0 C1.4540625 0.0309375 1.4540625 0.0309375 2.9375 0.0625 C2.6075 0.7225 2.2775 1.3825 1.9375 2.0625 C0.6175 2.0625 -0.7025 2.0625 -2.0625 2.0625 C-2.02769531 2.67738281 -1.99289063 3.29226562 -1.95703125 3.92578125 C-1.92996094 4.73402344 -1.90289062 5.54226562 -1.875 6.375 C-1.84019531 7.17550781 -1.80539063 7.97601563 -1.76953125 8.80078125 C-2.0625 11.0625 -2.0625 11.0625 -3.3125 12.8125 C-6.33848189 14.97391564 -9.41242062 14.76331317 -13.0625 15.0625 C-12.4025 13.7425 -11.7425 12.4225 -11.0625 11.0625 C-9.0825 11.0625 -7.1025 11.0625 -5.0625 11.0625 C-5.00191406 10.35222656 -4.94132813 9.64195312 -4.87890625 8.91015625 C-4.79511719 7.99105469 -4.71132812 7.07195312 -4.625 6.125 C-4.54378906 5.20847656 -4.46257812 4.29195312 -4.37890625 3.34765625 C-3.89440408 -0.1515261 -3.64350125 0.07435717 0 0 Z " fill="#431FA1" transform="translate(206.0625,221.9375)"/>
<path d="M0 0 C0.66 0 1.32 0 2 0 C1.42022443 3.47598164 0.53478895 6.29104698 -1.06640625 9.42578125 C-1.46923828 10.22177734 -1.87207031 11.01777344 -2.28710938 11.83789062 C-2.70798828 12.65451172 -3.12886719 13.47113281 -3.5625 14.3125 C-3.98724609 15.14845703 -4.41199219 15.98441406 -4.84960938 16.84570312 C-5.8943479 18.89996426 -6.94459762 20.95120292 -8 23 C-8.66 23 -9.32 23 -10 23 C-8.41980408 17.7936703 -6.22115005 13.01626689 -3.875 8.125 C-3.50246094 7.34125 -3.12992187 6.5575 -2.74609375 5.75 C-1.83381003 3.83186501 -0.91733016 1.91572671 0 0 Z " fill="#4393A3" transform="translate(417,258)"/>
<path d="M0 0 C2 4 2 4 2.75 6.0625 C4.66737765 9.03443536 6.71298785 9.78258809 10 11 C12.72423367 11.23028594 15.25726355 11.14186568 18 11 C17.67 11.99 17.34 12.98 17 14 C10.99831493 14.51078171 6.12196723 13.28641245 1 10 C-0.1577506 6.52674819 -0.06866652 3.63932552 0 0 Z " fill="#4B22C0" transform="translate(96,269)"/>
<path d="M0 0 C1.32 0.66 2.64 1.32 4 2 C2.625 3.5 2.625 3.5 1 5 C0.34 5 -0.32 5 -1 5 C-1.12375 5.70125 -1.2475 6.4025 -1.375 7.125 C-2.04653147 10.21404477 -2.80190637 13.07132669 -4 16 C-4.99 16.33 -5.98 16.66 -7 17 C-7 12.71 -7 8.42 -7 4 C-6.67 4 -6.34 4 -6 4 C-5.67 6.31 -5.34 8.62 -5 11 C-3.35 7.37 -1.7 3.74 0 0 Z " fill="#4B9DAA" transform="translate(441,258)"/>
<path d="M0 0 C0.33 0.99 0.66 1.98 1 3 C1.66 3.33 2.32 3.66 3 4 C-0.32561865 5.76062164 -1.59173995 6.10784228 -5.3125 5.125 C-6.199375 4.75375 -7.08625 4.3825 -8 4 C-8 3.01 -8 2.02 -8 1 C-5.29120665 -0.35439668 -2.99066732 -0.06501451 0 0 Z " fill="#5F16EC" transform="translate(109,238)"/>
<path d="M0 0 C1.12513633 8.01659634 1.09579384 15.92138585 1 24 C0.67 24 0.34 24 0 24 C-1.77541538 16.36399015 -2.53430878 8.8187104 -3 1 C-1 0 -1 0 0 0 Z " fill="#3E97A6" transform="translate(424,264)"/>
<path d="M0 0 C1.11581881 4.46327524 0.68986512 5.60761606 -0.9375 9.75 C-1.31777344 10.73484375 -1.69804687 11.7196875 -2.08984375 12.734375 C-2.39019531 13.48203125 -2.69054687 14.2296875 -3 15 C-3.66 15 -4.32 15 -5 15 C-5.99 17.475 -5.99 17.475 -7 20 C-7.66 19.34 -8.32 18.68 -9 18 C-6.03 12.06 -3.06 6.12 0 0 Z " fill="#4493A6" transform="translate(414,241)"/>
<path d="M0 0 C0.33 0 0.66 0 1 0 C1.79681084 8.02502344 2.12867289 15.93649887 2 24 C1.34 24 0.68 24 0 24 C-0.19533059 20.9378174 -0.38153284 17.87553679 -0.5625 14.8125 C-0.61857422 13.94818359 -0.67464844 13.08386719 -0.73242188 12.19335938 C-0.9761489 7.95250921 -1.15770796 4.14202181 0 0 Z " fill="#4295A5" transform="translate(432,237)"/>
<path d="M0 0 C2.4375 1.25 2.4375 1.25 5 3 C5.66015625 5.109375 5.66015625 5.109375 6 7 C4.78848458 8.20550294 3.55497111 9.38892747 2.3125 10.5625 C1.28576172 11.55443359 1.28576172 11.55443359 0.23828125 12.56640625 C-2 14 -2 14 -4.64453125 13.90234375 C-7 13 -7 13 -9 10 C-7.9275 10.268125 -6.855 10.53625 -5.75 10.8125 C-1.93993715 11.41974809 -1.93993715 11.41974809 0.5625 8.9375 C2.36917572 6.02316346 2.36917572 6.02316346 1.25 2.6875 C0.63125 1.3571875 0.63125 1.3571875 0 0 Z " fill="#4A22B4" transform="translate(182,237)"/>
<path d="M0 0 C1.32 0.33 2.64 0.66 4 1 C3.01 1.495 3.01 1.495 2 2 C2 4.64 2 7.28 2 10 C1.01 10.33 0.02 10.66 -1 11 C-1 11.66 -1 12.32 -1 13 C-3.31 13 -5.62 13 -8 13 C-7.67 15.64 -7.34 18.28 -7 21 C-7.66 21 -8.32 21 -9 21 C-9 18.69 -9 16.38 -9 14 C-9.66 13.67 -10.32 13.34 -11 13 C-10 12 -10 12 -6.5625 11.5625 C-2.95941003 11.35152449 -2.95941003 11.35152449 -1 9 C-0.53993654 6.79749008 -0.53993654 6.79749008 -0.375 4.375 C-0.30023438 3.55773437 -0.22546875 2.74046875 -0.1484375 1.8984375 C-0.09945312 1.27195313 -0.05046875 0.64546875 0 0 Z " fill="#551AD4" transform="translate(204,224)"/>
<path d="M0 0 C3 1 3 1 4.1328125 2.77734375 C4.46023437 3.49019531 4.78765625 4.20304687 5.125 4.9375 C5.45757812 5.64777344 5.79015625 6.35804688 6.1328125 7.08984375 C6.41898438 7.72019531 6.70515625 8.35054688 7 9 C7.33 9.66 7.66 10.32 8 11 C7.01 11 6.02 11 5 11 C5 11.66 5 12.32 5 13 C4.34 13 3.68 13 3 13 C2 10 2 10 2 7 C1.34 6.67 0.68 6.34 0 6 C0 4.02 0 2.04 0 0 Z " fill="#5519DC" transform="translate(182,264)"/>
<path d="M0 0 C0.99 0 1.98 0 3 0 C2.54775239 5.91492272 1.8417395 11.35199888 0 17 C-1.44977894 14.65887549 -2.04314411 13.4203071 -1.7578125 10.640625 C-1.54898437 9.85171875 -1.34015625 9.0628125 -1.125 8.25 C-0.92132813 7.45078125 -0.71765625 6.6515625 -0.5078125 5.828125 C-0.34023438 5.22484375 -0.17265625 4.6215625 0 4 C-0.66 4 -1.32 4 -2 4 C-2 3.34 -2 2.68 -2 2 C-1.34 2 -0.68 2 0 2 C0 1.34 0 0.68 0 0 Z " fill="#4399AB" transform="translate(267,231)"/>
<path d="M0 0 C1.98 0 3.96 0 6 0 C6 4.29 6 8.58 6 13 C5.67 13 5.34 13 5 13 C5 10.36 5 7.72 5 5 C3.02 5 1.04 5 -1 5 C-1.33 4.01 -1.66 3.02 -2 2 C-1.34 1.34 -0.68 0.68 0 0 Z " fill="#571CD4" transform="translate(210,221)"/>
<path d="M0 0 C0.33 0.66 0.66 1.32 1 2 C1.66 2 2.32 2 3 2 C2.67 2.66 2.34 3.32 2 4 C-1.3 3.67 -4.6 3.34 -8 3 C-8 3.66 -8 4.32 -8 5 C-8.99 5 -9.98 5 -11 5 C-11 5.66 -11 6.32 -11 7 C-11.66 6.67 -12.32 6.34 -13 6 C-12.125 3.5625 -12.125 3.5625 -10 1 C-6.6778746 0.24035136 -3.40077179 0.07018478 0 0 Z " fill="#468D9E" transform="translate(428,233)"/>
<path d="M0 0 C6.81598387 -0.33278764 11.92122066 -0.24201565 18 3 C17.67 3.66 17.34 4.32 17 5 C16.35933594 4.86722656 15.71867188 4.73445312 15.05859375 4.59765625 C10.05016007 3.57506994 5.06888206 2.66115853 0 2 C0 1.34 0 0.68 0 0 Z " fill="#5320B4" transform="translate(163,233)"/>
<path d="M0 0 C0 0.33 0 0.66 0 1 C-2.95857409 1.05379226 -5.91617721 1.09357093 -8.875 1.125 C-10.13763672 1.15013672 -10.13763672 1.15013672 -11.42578125 1.17578125 C-12.23144531 1.18222656 -13.03710938 1.18867188 -13.8671875 1.1953125 C-14.61081543 1.20578613 -15.35444336 1.21625977 -16.12060547 1.22705078 C-18 1 -18 1 -20 -1 C-12.77466796 -1.99939172 -7.04335384 -1.96290189 0 0 Z " fill="#5538BD" transform="translate(34,211)"/>
<path d="M0 0 C0.99 0 1.98 0 3 0 C3 0.66 3 1.32 3 2 C2.34 2 1.68 2 1 2 C1 2.66 1 3.32 1 4 C2.32 4.33 3.64 4.66 5 5 C5 5.99 5 6.98 5 8 C3.68 8 2.36 8 1 8 C-0.75 6 -0.75 6 -2 4 C-1.34 2.68 -0.68 1.36 0 0 Z " fill="#5F16F0" transform="translate(150,254)"/>
<path d="M0 0 C0.66 0.66 1.32 1.32 2 2 C1.20335937 2.45439453 1.20335937 2.45439453 0.390625 2.91796875 C-5.18440898 6.22433014 -8.39629826 9.59444738 -12 15 C-12.33183276 11.83099716 -12.32336245 10.43559748 -10.390625 7.83203125 C-9.68421875 7.16558594 -8.9778125 6.49914062 -8.25 5.8125 C-7.20585937 4.80123047 -7.20585937 4.80123047 -6.140625 3.76953125 C-4.15407459 2.12736458 -2.34955229 1.03189797 0 0 Z " fill="#4396A1" transform="translate(332,236)"/>
<path d="M0 0 C1.65 0 3.3 0 5 0 C6.2263757 2.45275141 6.11415314 4.0505781 6.09765625 6.7890625 C6.09282227 8.20058594 6.09282227 8.20058594 6.08789062 9.640625 C6.07951172 10.62546875 6.07113281 11.6103125 6.0625 12.625 C6.05798828 13.61757812 6.05347656 14.61015625 6.04882812 15.6328125 C6.03702145 18.0886016 6.020554 20.54427104 6 23 C5.67 23 5.34 23 5 23 C4.93941406 21.87980469 4.87882812 20.75960937 4.81640625 19.60546875 C4.73198576 18.13280016 4.64733851 16.66014456 4.5625 15.1875 C4.52318359 14.44951172 4.48386719 13.71152344 4.44335938 12.95117188 C4.25618965 9.76928658 4.01279207 7.03837622 3 4 C3.33 3.01 3.66 2.02 4 1 C2.68 0.67 1.36 0.34 0 0 Z " fill="#591CDB" transform="translate(59,217)"/>
<path d="M0 0 C0.556875 0.226875 1.11375 0.45375 1.6875 0.6875 C1.0275 0.6875 0.3675 0.6875 -0.3125 0.6875 C-0.3125 1.3475 -0.3125 2.0075 -0.3125 2.6875 C-7.14335645 5.12916784 -13.0640055 6.10390288 -20.3125 5.6875 C-20.3125 5.3575 -20.3125 5.0275 -20.3125 4.6875 C-18.99185547 4.52314453 -18.99185547 4.52314453 -17.64453125 4.35546875 C-15.90236328 4.11763672 -15.90236328 4.11763672 -14.125 3.875 C-12.97644531 3.72417969 -11.82789062 3.57335937 -10.64453125 3.41796875 C-6.80458065 2.57615074 -3.78648378 -0.511687 0 0 Z " fill="#4A1CA4" transform="translate(126.3125,289.3125)"/>
<path d="M0 0 C5.57142857 5.14285714 5.57142857 5.14285714 6 9 C6.66 9 7.32 9 8 9 C8.33 9.99 8.66 10.98 9 12 C5.16223678 10.43646684 2.65000662 8.16528569 0 5 C-0.3125 2.1875 -0.3125 2.1875 0 0 Z " fill="#5419D5" transform="translate(84,276)"/>
<path d="M0 0 C2.8203125 -0.29296875 2.8203125 -0.29296875 6.125 -0.1875 C7.76855469 -0.14689453 7.76855469 -0.14689453 9.4453125 -0.10546875 C10.28835938 -0.07066406 11.13140625 -0.03585937 12 0 C9.50494038 2.49505962 8.32671112 2.35948376 4.875 2.625 C3.96492188 2.69976562 3.05484375 2.77453125 2.1171875 2.8515625 C1.06917969 2.92503906 1.06917969 2.92503906 0 3 C-0.33 4.32 -0.66 5.64 -1 7 C-1.625 5.1875 -1.625 5.1875 -2 3 C-1.34 2.01 -0.68 1.02 0 0 Z " fill="#40919E" transform="translate(263,260)"/>
<path d="M0 0 C0.66 0 1.32 0 2 0 C2 2.31 2 4.62 2 7 C4.64 6.67 7.28 6.34 10 6 C10.33 7.32 10.66 8.64 11 10 C10.67 9.34 10.34 8.68 10 8 C7.03 8.66 4.06 9.32 1 10 C0.22157062 6.59437148 -0.09978121 3.49234244 0 0 Z " fill="#481DAB" transform="translate(193,238)"/>
<path d="M0 0 C4.62 0 9.24 0 14 0 C14 0.66 14 1.32 14 2 C13.31292969 1.97679687 12.62585938 1.95359375 11.91796875 1.9296875 C11.01691406 1.91164062 10.11585938 1.89359375 9.1875 1.875 C8.29417969 1.85179687 7.40085938 1.82859375 6.48046875 1.8046875 C3.74597286 1.81714173 3.74597286 1.81714173 1 4 C0.74969023 6.58380177 0.74969023 6.58380177 1 9 C0.34 9 -0.32 9 -1 9 C-0.67 6.03 -0.34 3.06 0 0 Z " fill="#5323B7" transform="translate(158,245)"/>
<path d="M0 0 C1.1328125 1.7421875 1.1328125 1.7421875 2 4 C1.2421875 6.0703125 1.2421875 6.0703125 -0.125 8.125 C-0.56070312 8.80820313 -0.99640625 9.49140625 -1.4453125 10.1953125 C-3.14334599 12.1663966 -4.61720621 13.00802147 -7 14 C-5.83024607 11.46553315 -4.52774442 9.31308279 -2.9375 7 C-1.3098164 4.47971572 -0.44658072 2.90277468 0 0 Z " fill="#4393A1" transform="translate(306,238)"/>
<path d="M0 0 C0.33 0.66 0.66 1.32 1 2 C0.34 2 -0.32 2 -1 2 C-1.103125 2.763125 -1.20625 3.52625 -1.3125 4.3125 C-2.04364039 7.17059424 -2.76951913 8.15742885 -5 10 C-5.99 9.67 -6.98 9.34 -8 9 C-7.04663979 7.68388323 -6.08714226 6.37221039 -5.125 5.0625 C-4.59132813 4.33160156 -4.05765625 3.60070312 -3.5078125 2.84765625 C-2 1 -2 1 0 0 Z " fill="#581ADA" transform="translate(93,239)"/>
<path d="M0 0 C0.99 0.33 1.98 0.66 3 1 C3 1.66 3 2.32 3 3 C0.5 4.5 0.5 4.5 -2 6 C-3.7041054 7.62836738 -5.38025441 9.28769752 -7 11 C-7.66 10.67 -8.32 10.34 -9 10 C-7.38405168 7.95880212 -5.7143618 5.95927063 -4 4 C-3.34 4 -2.68 4 -2 4 C-1.34 2.68 -0.68 1.36 0 0 Z " fill="#4E2198" transform="translate(149,273)"/>
<path d="M0 0 C0.33 0.99 0.66 1.98 1 3 C-3.29 3 -7.58 3 -12 3 C-7.78372195 0.18914797 -4.97048208 -0.11045516 0 0 Z " fill="#5280C2" transform="translate(76,208)"/>
<path d="M0 0 C4.87685861 1.35468295 6.48592381 3.71675909 9 8 C8.67 8.66 8.34 9.32 8 10 C4.82537057 7.59757773 2.14248259 5.38286724 0 2 C0 1.34 0 0.68 0 0 Z " fill="#461CB2" transform="translate(123,236)"/>
<path d="M0 0 C1.05960937 0.00676758 1.05960937 0.00676758 2.140625 0.01367188 C3.88545275 0.02546125 5.630237 0.04339676 7.375 0.0625 C7.375 0.3925 7.375 0.7225 7.375 1.0625 C1.765 1.7225 -3.845 2.3825 -9.625 3.0625 C-9.625 2.4025 -9.625 1.7425 -9.625 1.0625 C-6.55966836 -0.47016582 -3.35745728 -0.04026471 0 0 Z " fill="#499EA8" transform="translate(347.625,232.9375)"/>
<path d="M0 0 C0.99 0 1.98 0 3 0 C2.34 4.29 1.68 8.58 1 13 C-1 11 -1 11 -1.125 7.875 C-1.08375 6.92625 -1.0425 5.9775 -1 5 C-0.34 5 0.32 5 1 5 C0.67 3.35 0.34 1.7 0 0 Z " fill="#4695A4" transform="translate(259,269)"/>
<path d="M0 0 C3.875 1.75 3.875 1.75 5 4 C5.1875 7.5 5.1875 7.5 5 11 C4.34 11.66 3.68 12.32 3 13 C2.80083984 11.84371094 2.80083984 11.84371094 2.59765625 10.6640625 C2.42105469 9.66117187 2.24445313 8.65828125 2.0625 7.625 C1.88847656 6.62726563 1.71445312 5.62953125 1.53515625 4.6015625 C1.12287938 2.03090344 1.12287938 2.03090344 0 0 Z " fill="#4A99A2" transform="translate(278,263)"/>
<path d="M0 0 C0.99 0 1.98 0 3 0 C3.433125 0.9590625 3.433125 0.9590625 3.875 1.9375 C4.82823451 4.15206079 4.82823451 4.15206079 7 5 C6.67 5.99 6.34 6.98 6 8 C2.24623848 6.74874616 1.75926711 5.4347596 0 2 C0 1.34 0 0.68 0 0 Z " fill="#439FAA" transform="translate(315,281)"/>
<path d="M0 0 C0.5775 0.37125 1.155 0.7425 1.75 1.125 C0.50579353 1.6595256 -0.74570936 2.17708611 -2 2.6875 C-2.69609375 2.97753906 -3.3921875 3.26757812 -4.109375 3.56640625 C-6.55012784 4.20331803 -7.8903655 3.92748831 -10.25 3.125 C-8.91666667 2.45833333 -7.58333333 1.79166667 -6.25 1.125 C-5.26 0.50625 -5.26 0.50625 -4.25 -0.125 C-2.25 -0.875 -2.25 -0.875 0 0 Z " fill="#5819DC" transform="translate(179.25,288.875)"/>
<path d="M0 0 C3.63 0 7.26 0 11 0 C11 0.66 11 1.32 11 2 C6.545 2.495 6.545 2.495 2 3 C1.34 2.01 0.68 1.02 0 0 Z " fill="#4E1FBB" transform="translate(160,281)"/>
<path d="M0 0 C0.66 0 1.32 0 2 0 C0.77472971 4.05281712 -0.69880494 7.44360764 -3 11 C-3.75 9.4375 -3.75 9.4375 -4 7 C-2.86915563 4.49713591 -1.47860484 2.32992278 0 0 Z " fill="#4B93A0" transform="translate(368,272)"/>
<path d="M0 0 C0.33 0 0.66 0 1 0 C2.32286246 4.96073422 2.08893197 9.91111512 2 15 C-0.78781976 10.81827036 -1.20628545 7.59134491 -0.5625 2.625 C-0.376875 1.75875 -0.19125 0.8925 0 0 Z " fill="#4D969F" transform="translate(297,269)"/>
<path d="M0 0 C0.66 0 1.32 0 2 0 C2 0.99 2 1.98 2 3 C1.34 3 0.68 3 0 3 C-0.12375 4.11375 -0.2475 5.2275 -0.375 6.375 C-1 10 -1 10 -3 12 C-4 10 -4 10 -3.22265625 7.6171875 C-2.83980469 6.71226562 -2.45695312 5.80734375 -2.0625 4.875 C-1.68222656 3.96492187 -1.30195313 3.05484375 -0.91015625 2.1171875 C-0.60980469 1.41851562 -0.30945313 0.71984375 0 0 Z " fill="#4294A0" transform="translate(448,241)"/>
<path d="M0 0 C0 0.66 0 1.32 0 2 C0.66 2.33 1.32 2.66 2 3 C-0.8125 4.125 -0.8125 4.125 -4 5 C-4.99 4.34 -5.98 3.68 -7 3 C-3.375 0 -3.375 0 0 0 Z " fill="#4B18D8" transform="translate(163,233)"/>
<path d="M0 0 C1.32 0 2.64 0 4 0 C4.33 0.99 4.66 1.98 5 3 C7.50447516 4.21869929 7.50447516 4.21869929 10 5 C10 5.66 10 6.32 10 7 C3.47692308 5.64615385 3.47692308 5.64615385 1.0625 2.375 C0.711875 1.59125 0.36125 0.8075 0 0 Z " fill="#591CD8" transform="translate(206,285)"/>
<path d="M0 0 C3.45925163 1.2491742 6.14693203 2.67527795 9 5 C3.375 5.25 3.375 5.25 0 3 C0 2.01 0 1.02 0 0 Z " fill="#4D9BAA" transform="translate(330,277)"/>
<path d="M0 0 C1.46911544 3.81970016 0.52561108 6.30641529 -1 10 C-1.66 10.66 -2.32 11.32 -3 12 C-3.66 11.34 -4.32 10.68 -5 10 C-4.34 9.01 -3.68 8.02 -3 7 C-2.34 7 -1.68 7 -1 7 C-0.67 4.69 -0.34 2.38 0 0 Z " fill="#3A9EAD" transform="translate(356,266)"/>
<path d="M0 0 C0.99 0.33 1.98 0.66 3 1 C4.29676812 5.61073111 3.71109139 9.33840089 3 14 C2.67 14 2.34 14 2 14 C1.34 9.38 0.68 4.76 0 0 Z " fill="#3C99A8" transform="translate(369,247)"/>
<path d="M0 0 C0.33 0.66 0.66 1.32 1 2 C-1.6906142 2.8968714 -3.88897096 3.27859126 -6.6875 3.5625 C-7.49574219 3.64628906 -8.30398438 3.73007813 -9.13671875 3.81640625 C-10.05904297 3.90728516 -10.05904297 3.90728516 -11 4 C-11 3.34 -11 2.68 -11 2 C-7.36576791 -0.32590854 -4.22911669 -0.16265833 0 0 Z " fill="#469DA9" transform="translate(351,245)"/>
<path d="M0 0 C2.31 0.33 4.62 0.66 7 1 C6.34 2.32 5.68 3.64 5 5 C3.0625 4.1875 3.0625 4.1875 1 3 C0.67 2.01 0.34 1.02 0 0 Z " fill="#49AABC" transform="translate(96,195)"/>
<path d="M0 0 C0.99 0.33 1.98 0.66 3 1 C2.34 2.98 1.68 4.96 1 7 C0.01 7 -0.98 7 -2 7 C-1.125 2.25 -1.125 2.25 0 0 Z " fill="#409DAB" transform="translate(445,276)"/>
<path d="M0 0 C1.01731423 2.03462847 2.03134319 4.06660427 3 6.125 C3.97140377 8.16551151 3.97140377 8.16551151 6 10 C4.35 10 2.7 10 1 10 C-0.1577506 6.52674819 -0.06866652 3.63932552 0 0 Z " fill="#4C1EAB" transform="translate(96,269)"/>
<path d="M0 0 C0.33 0 0.66 0 1 0 C1.66 3.96 2.32 7.92 3 12 C1.68 12.33 0.36 12.66 -1 13 C-0.67 8.71 -0.34 4.42 0 0 Z " fill="#5A1DD7" transform="translate(145,246)"/>
<path d="M0 0 C1.32 0 2.64 0 4 0 C6.125 5.625 6.125 5.625 5 9 C4.34 9 3.68 9 3 9 C2.20046862 5.71303767 1.90341064 4.28976808 3 1 C2.01 0.67 1.02 0.34 0 0 Z " fill="#4E20D1" transform="translate(229,236)"/>
<path d="M0 0 C0.66 0.66 1.32 1.32 2 2 C0.68 4.97 -0.64 7.94 -2 11 C-2.33 11 -2.66 11 -3 11 C-3 8.69 -3 6.38 -3 4 C-2.01 3.67 -1.02 3.34 0 3 C0 2.01 0 1.02 0 0 Z " fill="#5A19DB" transform="translate(97,247)"/>
<path d="M0 0 C0.6875 1.6875 0.6875 1.6875 1 4 C-0.4375 6.75 -0.4375 6.75 -2 9 C-2.99 8.67 -3.98 8.34 -5 8 C-4.34 8 -3.68 8 -3 8 C-2.690625 7.05125 -2.38125 6.1025 -2.0625 5.125 C-1 2 -1 2 0 0 Z " fill="#4099A4" transform="translate(461,242)"/>
<path d="M0 0 C1.98 0.66 3.96 1.32 6 2 C6 2.66 6 3.32 6 4 C4.02 4.66 2.04 5.32 0 6 C0 4.02 0 2.04 0 0 Z " fill="#5A1ADB" transform="translate(100,241)"/>
<path d="M0 0 C3.3 0 6.6 0 10 0 C9.01 0.495 9.01 0.495 8 1 C8 1.66 8 2.32 8 3 C5.36 2.67 2.72 2.34 0 2 C0 1.34 0 0.68 0 0 Z " fill="#43A3BB" transform="translate(420,236)"/>
<path d="M0 0 C3.465 1.98 3.465 1.98 7 4 C7 4.66 7 5.32 7 6 C5.68 6.33 4.36 6.66 3 7 C0 2.25 0 2.25 0 0 Z " fill="#4F18BA" transform="translate(152,276)"/>
<path d="M0 0 C0.99 0 1.98 0 3 0 C2.74438677 2.3431213 2.40729228 4.67843403 2 7 C1.01 7.495 1.01 7.495 0 8 C-1.125 2.25 -1.125 2.25 0 0 Z " fill="#5320AC" transform="translate(187,275)"/>
<path d="M0 0 C1.7074998 1.28062485 3.37373596 2.61767557 5 4 C5 4.66 5 5.32 5 6 C4.01 5.67 3.02 5.34 2 5 C2 4.34 2 3.68 2 3 C-0.97 2.505 -0.97 2.505 -4 2 C-2.68 1.34 -1.36 0.68 0 0 Z " fill="#4C18B5" transform="translate(170,269)"/>
<path d="M0 0 C1.32 1.32 2.64 2.64 4 4 C3.01 5.32 2.02 6.64 1 8 C0.26919734 6.02253397 -0.39421747 4.01927511 -1 2 C-0.67 1.34 -0.34 0.68 0 0 Z " fill="#4AB0B4" transform="translate(104,195)"/>
<path d="M0 0 C6.52307692 -0.36923077 6.52307692 -0.36923077 8.9375 1.5 C9.288125 1.995 9.63875 2.49 10 3 C3.375 2.25 3.375 2.25 0 0 Z " fill="#4C23AB" transform="translate(94,291)"/>
<path d="M0 0 C0.33 0.66 0.66 1.32 1 2 C1.66 2 2.32 2 3 2 C2.67 2.99 2.34 3.98 2 5 C-0.0625 5.6875 -0.0625 5.6875 -2 6 C-1.49396008 3.83125748 -1.00016187 2.00032373 0 0 Z " fill="#551CD4" transform="translate(232,286)"/>
<path d="M0 0 C0.66 0.33 1.32 0.66 2 1 C1.34 3.31 0.68 5.62 0 8 C-0.99 7.67 -1.98 7.34 -3 7 C-2.01 4.69 -1.02 2.38 0 0 Z " fill="#4891A3" transform="translate(442,284)"/>
<path d="" fill="#FFFFFF" transform="translate(0,0)"/>
<path d="" fill="#FFFFFF" transform="translate(0,0)"/>
<path d="" fill="#FFFFFF" transform="translate(0,0)"/>
<path d="" fill="#FFFFFF" transform="translate(0,0)"/>
<path d="" fill="#FFFFFF" transform="translate(0,0)"/>
<path d="" fill="#FFFFFF" transform="translate(0,0)"/>
<path d="" fill="#FFFFFF" transform="translate(0,0)"/>
<path d="" fill="#FFFFFF" transform="translate(0,0)"/>
<path d="" fill="#FFFFFF" transform="translate(0,0)"/>
<path d="" fill="#FFFFFF" transform="translate(0,0)"/>
<path d="" fill="#FFFFFF" transform="translate(0,0)"/>
<path d="" fill="#FFFFFF" transform="translate(0,0)"/>
<path d="" fill="#FFFFFF" transform="translate(0,0)"/>
<path d="" fill="#FFFFFF" transform="translate(0,0)"/>
<path d="" fill="#FFFFFF" transform="translate(0,0)"/>
<path d="" fill="#FFFFFF" transform="translate(0,0)"/>
<path d="" fill="#FFFFFF" transform="translate(0,0)"/>
<path d="" fill="#FFFFFF" transform="translate(0,0)"/>
<path d="" fill="#FFFFFF" transform="translate(0,0)"/>
<path d="" fill="#FFFFFF" transform="translate(0,0)"/>
<path d="" fill="#FFFFFF" transform="translate(0,0)"/>
<path d="" fill="#FFFFFF" transform="translate(0,0)"/>
<path d="" fill="#FFFFFF" transform="translate(0,0)"/>
<path d="" fill="#FFFFFF" transform="translate(0,0)"/>
<path d="" fill="#FFFFFF" transform="translate(0,0)"/>
<path d="" fill="#FFFFFF" transform="translate(0,0)"/>
<path d="" fill="#FFFFFF" transform="translate(0,0)"/>
<path d="" fill="#FFFFFF" transform="translate(0,0)"/>
<path d="" fill="#FFFFFF" transform="translate(0,0)"/>
<path d="" fill="#FFFFFF" transform="translate(0,0)"/>
<path d="" fill="#FFFFFF" transform="translate(0,0)"/>
<path d="" fill="#FFFFFF" transform="translate(0,0)"/>
<path d="" fill="#FFFFFF" transform="translate(0,0)"/>
<path d="" fill="#FFFFFF" transform="translate(0,0)"/>
<path d="" fill="#FFFFFF" transform="translate(0,0)"/>
<path d="" fill="#FFFFFF" transform="translate(0,0)"/>
<path d="" fill="#FFFFFF" transform="translate(0,0)"/>
<path d="" fill="#FFFFFF" transform="translate(0,0)"/>
<path d="" fill="#FFFFFF" transform="translate(0,0)"/>
<path d="" fill="#FFFFFF" transform="translate(0,0)"/>
<path d="" fill="#FFFFFF" transform="translate(0,0)"/>
<path d="" fill="#FFFFFF" transform="translate(0,0)"/>
<path d="" fill="#FFFFFF" transform="translate(0,0)"/>
<path d="" fill="#FFFFFF" transform="translate(0,0)"/>
<path d="" fill="#FFFFFF" transform="translate(0,0)"/>
<path d="" fill="#404040" transform="translate(0,0)"/>
<path d="" fill="#FFFFFF" transform="translate(0,0)"/>
<path d="" fill="#FFFFFF" transform="translate(0,0)"/>
<path d="" fill="#FFFFFF" transform="translate(0,0)"/>
<path d="" fill="#FFFFFF" transform="translate(0,0)"/>
<path d="" fill="#FFFFFF" transform="translate(0,0)"/>
<path d="" fill="#FFFFFF" transform="translate(0,0)"/>
<path d="" fill="#FFFFFF" transform="translate(0,0)"/>
<path d="" fill="#FFFFFF" transform="translate(0,0)"/>
<path d="" fill="#FFFFFF" transform="translate(0,0)"/>
<path d="" fill="#FFFFFF" transform="translate(0,0)"/>
<path d="" fill="#FFFFFF" transform="translate(0,0)"/>
<path d="" fill="#FFFFFF" transform="translate(0,0)"/>
<path d="" fill="#FFFFFF" transform="translate(0,0)"/>
<path d="" fill="#FFFFFF" transform="translate(0,0)"/>
<path d="" fill="#FFFFFF" transform="translate(0,0)"/>
<path d="" fill="#FFFFFF" transform="translate(0,0)"/>
<path d="" fill="#FFFFFF" transform="translate(0,0)"/>
<path d="" fill="#FFFFFF" transform="translate(0,0)"/>
<path d="" fill="#FFFFFF" transform="translate(0,0)"/>
<path d="" fill="#FFFFFF" transform="translate(0,0)"/>
<path d="" fill="#FFFFFF" transform="translate(0,0)"/>
<path d="" fill="#FFFFFF" transform="translate(0,0)"/>
<path d="" fill="#FFFFFF" transform="translate(0,0)"/>
<path d="" fill="#FFFFFF" transform="translate(0,0)"/>
<path d="" fill="#FFFFFF" transform="translate(0,0)"/>
<path d="" fill="#FFFFFF" transform="translate(0,0)"/>
<path d="" fill="#FFFFFF" transform="translate(0,0)"/>
<path d="" fill="#FFFFFF" transform="translate(0,0)"/>
<path d="" fill="#FFFFFF" transform="translate(0,0)"/>
<path d="" fill="#FFFFFF" transform="translate(0,0)"/>
<path d="" fill="#FFFFFF" transform="translate(0,0)"/>
<path d="" fill="#FFFFFF" transform="translate(0,0)"/>
<path d="" fill="#FFFFFF" transform="translate(0,0)"/>
<path d="" fill="#FFFFFF" transform="translate(0,0)"/>
<path d="" fill="#FFFFFF" transform="translate(0,0)"/>
<path d="" fill="#FFFFFF" transform="translate(0,0)"/>
<path d="" fill="#FFFFFF" transform="translate(0,0)"/>
<path d="" fill="#FFFFFF" transform="translate(0,0)"/>
<path d="" fill="#FFFFFF" transform="translate(0,0)"/>
<path d="" fill="#FFFFFF" transform="translate(0,0)"/>
<path d="" fill="#FFFFFF" transform="translate(0,0)"/>
<path d="" fill="#FFFFFF" transform="translate(0,0)"/>
</svg>
